<?xml version="1.0" encoding="UTF-8"?>
<svg version="1.1" xmlns="http://www.w3.org/2000/svg" width="220" height="220">
<path d="M0 0 C1.37093728 -0.00404538 2.74187036 -0.00987152 4.11279297 -0.01739502 C6.98121252 -0.02622452 9.84850836 -0.01344038 12.71679688 0.01464844 C16.38611279 0.0488384 20.052796 0.02914589 23.72201538 -0.00678635 C26.55155121 -0.02851226 29.38046704 -0.02154794 32.21002197 -0.00601959 C34.21799437 -0.00009444 36.22599126 -0.01825473 38.23388672 -0.0368042 C47.05239881 0.09937168 47.05239881 0.09937168 50.0756073 2.06533813 C53.30266044 5.71362017 53.67869074 8.94453649 53.4375 13.671875 C53.39238281 14.82429687 53.34726563 15.97671875 53.30078125 17.1640625 C53.24277344 18.03289063 53.18476563 18.90171875 53.125 19.796875 C53.82061035 19.77592773 54.5162207 19.75498047 55.23291016 19.73339844 C58.40512458 19.6499052 61.57710731 19.59810971 64.75 19.546875 C66.39162109 19.49660156 66.39162109 19.49660156 68.06640625 19.4453125 C74.42850026 19.36819621 78.32546178 19.45594175 83.125 23.796875 C87.65305064 28.81444463 88.25028105 32.20516397 88.27217102 38.86810303 C88.27584771 39.59259966 88.2795244 40.3170963 88.2833125 41.06354737 C88.29434927 43.4977757 88.29819316 45.93196133 88.30200195 48.36621094 C88.3082666 50.10896948 88.3149134 51.85172668 88.32191467 53.59448242 C88.34295682 59.32339548 88.35331698 65.05230882 88.36328125 70.78125 C88.3673287 72.75327824 88.37144562 74.72530634 88.37563133 76.69733429 C88.39468308 85.96165896 88.40891433 95.22597566 88.4172433 104.49031615 C88.42701706 115.18518532 88.45334029 125.87984759 88.49374419 136.57464385 C88.52390069 144.84056453 88.53871173 153.10642589 88.54202431 161.37240052 C88.54437528 166.30955573 88.55334188 171.24648991 88.57848549 176.18358612 C88.60176311 180.8293467 88.60600069 185.47474066 88.59572411 190.12054443 C88.59522856 191.82370472 88.60155446 193.52688304 88.61528015 195.2299881 C88.6330019 197.55966746 88.62589268 199.88803144 88.61274719 202.2177124 C88.61513555 203.5199966 88.6175239 204.82228081 88.61998463 206.16402817 C87.88909516 211.52825431 85.59243242 215.03925671 82.11694336 219.20202637 C77.33091149 221.75320982 72.59366102 221.35259118 67.25390625 221.31445312 C66.05176483 221.3214624 64.84962341 221.32847168 63.61105347 221.33569336 C60.32164408 221.35026601 57.03288019 221.34687321 53.74348068 221.33417702 C50.29715392 221.32403236 46.85086951 221.33344675 43.40454102 221.33972168 C37.61759731 221.34699387 31.83085797 221.33742183 26.04394531 221.31835938 C19.35854369 221.2965912 12.67363004 221.3036429 5.98824024 221.325665 C0.24284349 221.34383141 -5.50240656 221.34637133 -11.24782276 221.33591032 C-14.67692371 221.32968211 -18.10579547 221.32882093 -21.53488159 221.34205627 C-25.35822651 221.35220261 -29.18063143 221.33674534 -33.00390625 221.31445312 C-34.13756622 221.32255005 -35.2712262 221.33064697 -36.4392395 221.33898926 C-44.01161646 221.25709964 -44.01161646 221.25709964 -47.86694336 219.20202637 C-52.53269153 213.61362295 -54.37443548 209.55452493 -54.38293457 202.24462891 C-54.39229451 201.15275741 -54.39229451 201.15275741 -54.40184355 200.0388279 C-54.4177096 197.61669471 -54.40519524 195.19557689 -54.39257812 192.7734375 C-54.39800211 191.03008439 -54.40512633 189.28673587 -54.41381836 187.543396 C-54.43202177 182.82023587 -54.42499652 178.09742604 -54.41230202 173.37425995 C-54.4021589 168.42609224 -54.41157134 163.47795407 -54.41784668 158.52978516 C-54.42511926 150.220974 -54.41554559 141.91230516 -54.39648438 133.60351562 C-54.3747164 124.00413164 -54.38176804 114.4050875 -54.40379 104.80571175 C-54.42195508 96.55666767 -54.42449689 88.30772576 -54.41403532 80.05866814 C-54.4078065 75.13502305 -54.40694797 70.2115376 -54.42018127 65.28790283 C-54.43175527 60.65845113 -54.42368577 56.02943663 -54.40060425 51.40003204 C-54.39532543 49.70333837 -54.39681678 48.00660776 -54.40565491 46.30992889 C-54.41662729 43.98916674 -54.40282828 41.66979524 -54.38293457 39.34912109 C-54.38142647 38.05203217 -54.37991837 36.75494324 -54.37836456 35.41854858 C-53.6106509 29.8949013 -51.43273153 26.20625114 -47.25 22.421875 C-43.64412931 19.95470032 -41.77849229 19.6763303 -37.4296875 19.69921875 C-35.81513672 19.70405273 -35.81513672 19.70405273 -34.16796875 19.70898438 C-33.04003906 19.71736328 -31.91210938 19.72574219 -30.75 19.734375 C-29.61433594 19.73888672 -28.47867188 19.74339844 -27.30859375 19.74804688 C-24.49734362 19.75985885 -21.6861977 19.77632993 -18.875 19.796875 C-18.93300781 18.92804687 -18.99101563 18.05921875 -19.05078125 17.1640625 C-19.09589844 16.01164062 -19.14101562 14.85921875 -19.1875 13.671875 C-19.24550781 12.53492188 -19.30351563 11.39796875 -19.36328125 10.2265625 C-18.87228566 6.7778095 -18.14510298 4.68759877 -15.8256073 2.06533813 C-11.2806762 -0.89019144 -5.22277857 -0.04824941 0 0 Z M-41.875 33.796875 C-42.18403647 36.90342695 -42.18403647 36.90342695 -42.13569641 40.62963867 C-42.13952196 41.3404745 -42.14334751 42.05131033 -42.14728898 42.78368664 C-42.15764901 45.17747982 -42.15362124 47.57103449 -42.1496582 49.96484375 C-42.15400299 51.67615991 -42.15918535 53.38747411 -42.16514587 55.0987854 C-42.17857138 59.75569934 -42.17911068 64.4125323 -42.17658257 69.06946182 C-42.17551539 72.95146308 -42.18038966 76.83344779 -42.185188 80.71544552 C-42.19629519 89.86987984 -42.1967136 99.02427313 -42.19067383 108.17871094 C-42.18463003 117.63659078 -42.19695258 127.094322 -42.2182439 136.55217648 C-42.23582982 144.6608955 -42.24186608 152.76956708 -42.23860615 160.87830448 C-42.23678854 165.72639567 -42.23947696 170.57438083 -42.25332069 175.42245483 C-42.26584584 179.97951377 -42.26400569 184.53634009 -42.25090981 189.09339523 C-42.24853292 190.76961722 -42.25131817 192.44585532 -42.25953293 194.12205887 C-42.26990883 196.40301754 -42.26197487 198.68318226 -42.2492218 200.96411133 C-42.24938954 202.24280594 -42.24955729 203.52150055 -42.24973011 204.83894348 C-42.12606917 205.81506088 -42.00240824 206.79117828 -41.875 207.796875 C-38.6945361 209.91718427 -37.922798 210.04749173 -34.2824707 210.05084229 C-33.34029694 210.05648193 -32.39812317 210.06212158 -31.42739868 210.06793213 C-30.39561493 210.06388367 -29.36383118 210.05983521 -28.30078125 210.05566406 C-27.21276215 210.0591687 -26.12474304 210.06267334 -25.00375366 210.06628418 C-21.39827135 210.07510474 -17.7929844 210.0692511 -14.1875 210.0625 C-11.68790652 210.06384655 -9.18831329 210.065787 -6.6887207 210.06829834 C-1.44643145 210.07125004 3.79580675 210.0671405 9.03808594 210.05761719 C15.09966008 210.04673271 21.16109968 210.05025834 27.22267056 210.06127 C33.05272906 210.07143736 38.8827364 210.07036398 44.71279907 210.06450653 C47.19438699 210.06316968 49.67597833 210.06481899 52.15756226 210.06946564 C55.62206193 210.07452865 59.08630105 210.06682356 62.55078125 210.05566406 C63.582565 210.05971252 64.61434875 210.06376099 65.67739868 210.06793213 C66.61957245 210.06229248 67.56174622 210.05665283 68.5324707 210.05084229 C69.35173538 210.05008823 70.17100006 210.04933418 71.01509094 210.04855728 C73.42702894 209.92214177 73.42702894 209.92214177 76.125 207.796875 C76.5809614 204.69518792 76.5809614 204.69518792 76.4992218 200.96411133 C76.50518341 199.89785758 76.50518341 199.89785758 76.51126546 198.81006336 C76.52092875 196.41614393 76.50904653 194.02280957 76.49731445 191.62890625 C76.4997411 189.91759011 76.50345918 188.20627539 76.50837708 186.4949646 C76.51780719 181.83799722 76.50834292 177.18123924 76.49504495 172.52428818 C76.48375606 167.65917669 76.48783596 162.7940759 76.48979187 157.92895508 C76.49067566 149.7576148 76.47957674 141.58635735 76.46118164 133.41503906 C76.44001272 123.95718305 76.43650363 114.49944843 76.4427436 105.04157352 C76.44843115 95.95717319 76.4427988 86.87281577 76.43157005 77.78842163 C76.42691597 73.9160381 76.4260537 70.04368074 76.4281559 66.17129517 C76.43003456 61.6142642 76.42196761 57.05735742 76.4060955 52.50035477 C76.40183983 50.82413878 76.40101067 49.14791022 76.40378571 47.47169113 C76.40698978 45.19086904 76.39797104 42.91042216 76.38569641 40.62963867 C76.38364354 39.35094406 76.38159067 38.07224945 76.37947559 36.75480652 C76.43447682 33.67708864 76.43447682 33.67708864 74.125 31.796875 C72.02442459 31.49330356 72.02442459 31.49330356 69.57006836 31.54290771 C68.61099579 31.53726807 67.65192322 31.53162842 66.66378784 31.52581787 C65.60813629 31.52986633 64.55248474 31.53391479 63.46484375 31.53808594 C61.80136398 31.53282898 61.80136398 31.53282898 60.10427856 31.52746582 C56.42362279 31.51863405 52.74315787 31.52450283 49.0625 31.53125 C46.51424116 31.52990377 43.96598257 31.52796359 41.41772461 31.52545166 C36.07109907 31.52249843 30.7245425 31.52661483 25.37792969 31.53613281 C19.19195729 31.54701768 13.00611672 31.5434922 6.82014751 31.53248 C0.87529588 31.52231964 -5.0695147 31.52338336 -11.01437378 31.52924347 C-13.54702777 31.53058146 -16.07968511 31.52892707 -18.61233521 31.52428436 C-22.14659652 31.51922802 -25.68060161 31.52691696 -29.21484375 31.53808594 C-30.2704953 31.53403748 -31.32614685 31.52998901 -32.41378784 31.52581787 C-33.8523967 31.53427734 -33.8523967 31.53427734 -35.32006836 31.54290771 C-36.57441933 31.54403879 -36.57441933 31.54403879 -37.85411072 31.54519272 C-40.10278671 31.61512984 -40.10278671 31.61512984 -41.875 33.796875 Z " fill="#000000" transform="translate(92.875,-0.796875)"/>
<path d="M0 0 C33.66 0 67.32 0 102 0 C102 17.16 102 34.32 102 52 C68.34 52 34.68 52 0 52 C0 34.84 0 17.68 0 0 Z " fill="#000000" transform="translate(59,149)"/>
<path d="M0 0 C33.66 0 67.32 0 102 0 C102 17.16 102 34.32 102 52 C68.34 52 34.68 52 0 52 C0 34.84 0 17.68 0 0 Z " fill="#000000" transform="translate(59,94)"/>
<path d="M0 0 C33.66 0 67.32 0 102 0 C102 17.16 102 34.32 102 52 C68.34 52 34.68 52 0 52 C0 34.84 0 17.68 0 0 Z " fill="#000000" transform="translate(59,39)"/>
</svg>
