<?xml version="1.0" encoding="UTF-8"?>
<svg version="1.1" xmlns="http://www.w3.org/2000/svg" width="295" height="306">
<path d="M0 0 C11.88 0 23.76 0 36 0 C36 39.6 36 79.2 36 120 C53.82 120 71.64 120 90 120 C90 113.73 90 107.46 90 101 C103.49313344 107.33719549 116.86757292 113.87019173 130.1875 120.5625 C132.02789904 121.48521705 133.86839345 122.4077439 135.70898438 123.33007812 C140.14041898 125.55120723 144.57057762 127.77486098 149 130 C146.02420483 132.3691287 143.00519148 134.12142158 139.60473633 135.8190918 C138.52714554 136.35942551 137.44955475 136.89975922 136.33930969 137.45646667 C135.18190781 138.03157486 134.02450592 138.60668304 132.83203125 139.19921875 C131.62930456 139.79998567 130.42672591 140.40104905 129.22428894 141.00239563 C126.71138392 142.25806807 124.19716243 143.51105016 121.68188477 144.76196289 C118.45152954 146.36861296 115.22385893 147.98056971 111.99705982 149.59434795 C109.51783379 150.83382536 107.03757306 152.07121956 104.55695152 153.30790138 C102.7855139 154.19124882 101.01467942 155.07580544 99.24385071 155.96037292 C98.1757164 156.49125015 97.10758209 157.02212738 96.00708008 157.5690918 C95.06206131 158.03969528 94.11704254 158.51029877 93.14338684 158.99516296 C91 160 91 160 90 160 C90 153.73 90 147.46 90 141 C72.18 141 54.36 141 36 141 C36 183.57 36 226.14 36 270 C24.12 270 12.24 270 0 270 C0 253.83 0 237.66 0 221 C-17.49 221 -34.98 221 -53 221 C-53 227.27 -53 233.54 -53 240 C-57.15697625 238.61434125 -60.6082324 237.31879055 -64.45458984 235.38623047 C-65.49521576 234.86584198 -66.53584167 234.34545349 -67.60800171 233.80929565 C-68.71447052 233.25089996 -69.82093933 232.69250427 -70.9609375 232.1171875 C-72.10664215 231.54292023 -73.2523468 230.96865295 -74.43276978 230.37698364 C-77.46270615 228.8582171 -80.49020785 227.33465918 -83.51721191 225.81005859 C-86.61287093 224.25195701 -89.71083029 222.6984434 -92.80859375 221.14453125 C-98.87451574 218.10056033 -104.93812913 215.05202977 -111 212 C-111 211.01 -111 210.02 -111 209 C-103.73539861 205.34455895 -96.46866424 201.69340837 -89.19914436 198.04776001 C-85.82391425 196.35491984 -82.44944656 194.66059506 -79.07666016 192.96289062 C-75.82349923 191.32546811 -72.56841623 189.69192847 -69.31194687 188.06109619 C-68.0680664 187.43730409 -66.82489248 186.81210106 -65.58243179 186.18548584 C-63.84603989 185.31006211 -62.10692153 184.44005256 -60.36767578 183.5703125 C-59.37728302 183.07289551 -58.38689026 182.57547852 -57.3664856 182.06298828 C-55 181 -55 181 -53 181 C-53 187.27 -53 193.54 -53 200 C-35.51 200 -18.02 200 0 200 C0 157.43 0 114.86 0 71 C-17.49 71 -34.98 71 -53 71 C-53 77.27 -53 83.54 -53 90 C-57.15697625 88.61434125 -60.6082324 87.31879055 -64.45458984 85.38623047 C-65.49521576 84.86584198 -66.53584167 84.34545349 -67.60800171 83.80929565 C-68.71447052 83.25089996 -69.82093933 82.69250427 -70.9609375 82.1171875 C-72.10664215 81.54292023 -73.2523468 80.96865295 -74.43276978 80.37698364 C-77.46270615 78.8582171 -80.49020785 77.33465918 -83.51721191 75.81005859 C-86.61287093 74.25195701 -89.71083029 72.6984434 -92.80859375 71.14453125 C-98.87451574 68.10056033 -104.93812913 65.05202977 -111 62 C-111 61.01 -111 60.02 -111 59 C-103.73539861 55.34455895 -96.46866424 51.69340837 -89.19914436 48.04776001 C-85.82391425 46.35491984 -82.44944656 44.66059506 -79.07666016 42.96289062 C-75.82349923 41.32546811 -72.56841623 39.69192847 -69.31194687 38.06109619 C-68.0680664 37.43730409 -66.82489248 36.81210106 -65.58243179 36.18548584 C-63.84603989 35.31006211 -62.10692153 34.44005256 -60.36767578 33.5703125 C-59.37728302 33.07289551 -58.38689026 32.57547852 -57.3664856 32.06298828 C-55 31 -55 31 -53 31 C-53 37.27 -53 43.54 -53 50 C-35.51 50 -18.02 50 0 50 C0 33.5 0 17 0 0 Z " fill="#000000" transform="translate(129,17)"/>
</svg>
