<?xml version="1.0" encoding="UTF-8"?>
<svg version="1.1" xmlns="http://www.w3.org/2000/svg" width="100" height="100">
<path d="M0 0 C0.72249435 -0.00073013 1.44498871 -0.00146027 2.18937683 -0.00221252 C4.56542377 0.00125694 6.93948334 0.04008282 9.31518555 0.0793457 C10.96712676 0.08867623 12.61908185 0.09579121 14.27104187 0.1007843 C18.6098581 0.11983554 22.94783165 0.16891929 27.28631592 0.2243042 C31.71704713 0.27553767 36.1479151 0.29830704 40.57885742 0.32348633 C49.26609222 0.37704067 57.95264331 0.4623297 66.6394043 0.56762695 C66.6394043 4.56762695 66.6394043 4.56762695 65.45248413 6.24673843 C64.61180893 7.08188288 64.61180893 7.08188288 63.75415039 7.93389893 C63.11467468 8.57887329 62.47519897 9.22384766 61.81634521 9.8883667 C61.10568909 10.58464172 60.39503296 11.28091675 59.6628418 11.99829102 C58.92157043 12.74014648 58.18029907 13.48200195 57.41656494 14.24633789 C54.95853853 16.7015726 52.4866365 19.14232871 50.0144043 21.58325195 C48.30959643 23.28060136 46.60566825 24.97883474 44.90258789 26.67791748 C40.41338803 31.1518302 35.91230631 35.61360262 31.40869141 40.07299805 C26.81693656 44.62386713 22.23645621 49.1860524 17.6550293 53.74731445 C8.66085519 62.69856325 -0.34552785 71.63742377 -9.3605957 80.56762695 C-10.3505957 80.23762695 -11.3405957 79.90762695 -12.3605957 79.56762695 C-12.47650158 70.00568111 -12.56531668 60.44397746 -12.61965656 50.88148212 C-12.64573861 46.44108053 -12.68111052 42.00115993 -12.73779297 37.56103516 C-12.7921635 33.27513599 -12.82202672 28.98969912 -12.83498192 24.70348167 C-12.84421286 23.06917226 -12.86223925 21.43488785 -12.88924599 19.80077553 C-12.92560585 17.50937073 -12.93053853 15.21987003 -12.92822266 12.92822266 C-12.93932571 11.62472366 -12.95042877 10.32122467 -12.96186829 8.97822571 C-11.63114352 1.42995501 -7.05575379 -0.06010012 0 0 Z M-0.3605957 18.56762695 C-0.3605957 19.22762695 -0.3605957 19.88762695 -0.3605957 20.56762695 C0.1344043 20.40262695 0.6294043 20.23762695 1.1394043 20.06762695 C9.78911295 18.33768522 9.78911295 18.33768522 13.6550293 20.9074707 C14.30987305 21.45532227 14.9647168 22.00317383 15.6394043 22.56762695 C18.444991 24.90377494 20.20119987 26.02767683 23.8894043 26.13012695 C27.51774402 25.58587599 29.17531415 25.23705795 31.6394043 22.56762695 C31.6394043 21.90762695 31.6394043 21.24762695 31.6394043 20.56762695 C31.1444043 20.73262695 30.6494043 20.89762695 30.1394043 21.06762695 C21.48969565 22.79756868 21.48969565 22.79756868 17.6237793 20.2277832 C16.96893555 19.67993164 16.3140918 19.13208008 15.6394043 18.56762695 C12.83381759 16.23147897 11.07760872 15.10757708 7.3894043 15.00512695 C3.76106457 15.54937791 2.10349444 15.89819596 -0.3605957 18.56762695 Z " fill="#000000" transform="translate(20.360595703125,7.432373046875)"/>
<path d="M0 0 C0.99 0.33 1.98 0.66 3 1 C3.11590588 10.56194585 3.20472098 20.12364949 3.25906086 29.68614483 C3.2851429 34.12654642 3.32051482 38.56646703 3.37719727 43.0065918 C3.43156779 47.29249096 3.46143102 51.57792783 3.47438622 55.86414528 C3.48361715 57.49845469 3.50164355 59.1327391 3.52865028 60.76685143 C3.56501015 63.05825623 3.56994283 65.34775692 3.56762695 67.6394043 C3.57873001 68.94290329 3.58983307 70.24640228 3.60127258 71.58940125 C2.82539449 75.99041491 1.62681551 77.4261993 -2 80 C-5.41059875 80.60127258 -5.41059875 80.60127258 -9.3605957 80.56762695 C-10.08309006 80.56835709 -10.80558441 80.56908722 -11.54997253 80.56983948 C-13.92601947 80.56637001 -16.30007904 80.52754413 -18.67578125 80.48828125 C-20.32772246 80.47895072 -21.97967755 80.47183574 -23.63163757 80.46684265 C-27.9704538 80.44779141 -32.30842735 80.39870766 -36.64691162 80.34332275 C-41.07764284 80.29208929 -45.5085108 80.26931992 -49.93945312 80.24414062 C-58.62668793 80.19058628 -67.31323901 80.10529726 -76 80 C-76 76 -76 76 -74.81307983 74.32088852 C-74.2526297 73.76412556 -73.69217957 73.20736259 -73.11474609 72.63372803 C-72.47527039 71.98875366 -71.83579468 71.3437793 -71.17694092 70.67926025 C-70.46628479 69.98298523 -69.75562866 69.28671021 -69.0234375 68.56933594 C-68.28216614 67.82748047 -67.54089478 67.085625 -66.77716064 66.32128906 C-64.31913424 63.86605435 -61.8472322 61.42529824 -59.375 58.984375 C-57.67019213 57.28702559 -55.96626396 55.58879221 -54.26318359 53.88970947 C-49.77398373 49.41579675 -45.27290202 44.95402433 -40.76928711 40.49462891 C-36.17753226 35.94375982 -31.59705192 31.38157455 -27.015625 26.8203125 C-18.0214509 17.86906371 -9.01506785 8.93020318 0 0 Z M-39 52 C-39 53.32 -39 54.64 -39 56 C-29.76 56 -20.52 56 -11 56 C-11 54.68 -11 53.36 -11 52 C-20.24 52 -29.48 52 -39 52 Z M-39 60 C-39 61.32 -39 62.64 -39 64 C-35.04 64 -31.08 64 -27 64 C-27 62.68 -27 61.36 -27 60 C-30.96 60 -34.92 60 -39 60 Z M-23 60 C-23 61.32 -23 62.64 -23 64 C-19.04 64 -15.08 64 -11 64 C-11 62.68 -11 61.36 -11 60 C-14.96 60 -18.92 60 -23 60 Z " fill="#000000" transform="translate(89,12)"/>
</svg>
