<?xml version="1.0" encoding="UTF-8"?>
<svg version="1.1" xmlns="http://www.w3.org/2000/svg" width="107" height="100">
<path d="M0 0 C3.96 0 7.92 0 12 0 C12 2.31 12 4.62 12 7 C14.31 7.33 16.62 7.66 19 8 C19.99 6.68 20.98 5.36 22 4 C27.01113235 5.4317521 28.94469549 7.98445693 32 12 C31.46375 12.515625 30.9275 13.03125 30.375 13.5625 C28.58703117 16.10114009 28.58703117 16.10114009 29.8125 19.75 C30.204375 20.8225 30.59625 21.895 31 23 C33.31 22.67 35.62 22.34 38 22 C39.29243536 26.1196377 40.26252625 29.66831683 40 34 C38.02 34.33 36.04 34.66 34 35 C33.34 37.31 32.68 39.62 32 42 C33.2065625 42.433125 33.2065625 42.433125 34.4375 42.875 C37 44 37 44 38 46 C37.00390625 48.1640625 37.00390625 48.1640625 35.5625 50.625 C35.08941406 51.44226562 34.61632813 52.25953125 34.12890625 53.1015625 C33.75636719 53.72804687 33.38382813 54.35453125 33 55 C30.92873741 54.49839987 28.9422477 53.97899916 26.9375 53.25 C24.94290902 52.79856161 24.94290902 52.79856161 23.1875 54 C21.3499738 57.09478096 22.2935409 59.59615163 23 63 C21.5682384 63.69937202 20.12932968 64.38412718 18.6875 65.0625 C17.88699219 65.44535156 17.08648437 65.82820313 16.26171875 66.22265625 C14 67 14 67 11 66 C10.67 64.35 10.34 62.7 10 61 C7.36 61 4.72 61 2 61 C1.01 63.97 1.01 63.97 0 67 C-1.6498275 66.57781184 -3.29483665 66.13675575 -4.9375 65.6875 C-5.85402344 65.44386719 -6.77054688 65.20023437 -7.71484375 64.94921875 C-8.46894531 64.63597656 -9.22304688 64.32273437 -10 64 C-11.09658936 60.71023192 -10.79953138 59.28696233 -10 56 C-12.1447024 54.24471981 -12.1447024 54.24471981 -15 53 C-18.26814404 53.69940936 -18.26814404 53.69940936 -21 55 C-21.86658615 53.73760288 -22.71792059 52.46472499 -23.5625 51.1875 C-24.27599609 50.12595703 -24.27599609 50.12595703 -25.00390625 49.04296875 C-26 47 -26 47 -25 44 C-22.4375 42.8125 -22.4375 42.8125 -20 42 C-20.99 38.535 -20.99 38.535 -22 35 C-23.98 34.67 -25.96 34.34 -28 34 C-27.67 30.04 -27.34 26.08 -27 22 C-21 22 -21 22 -19 23 C-18.01 19.535 -18.01 19.535 -17 16 C-17.99 15.01 -18.98 14.02 -20 13 C-18.40758592 8.70048197 -15.64459275 6.60328053 -12 4 C-9 5 -9 5 -7 8 C-3.535 7.505 -3.535 7.505 0 7 C0 4.69 0 2.38 0 0 Z M-6.9375 26.6875 C-8.35064983 31.0932024 -8.30955881 34.56337348 -7 39 C-4.91520839 42.65032285 -2.11553344 45.8241333 2 47 C6.81665605 47.46612801 9.01211413 47.52190197 13.3125 45.25 C17.0163954 42.14906431 18.62952439 40.40251479 19.875 35.6875 C20.07389983 29.81995511 18.2498585 26.43276462 14.4375 22.0625 C10.97503357 19.45485695 7.63409474 19.34658044 3.40234375 19.58203125 C-1.51099071 20.43687155 -4.09163125 22.74000463 -6.9375 26.6875 Z " fill="#000000" transform="translate(28,0)"/>
<path d="M0 0 C0.33 1.32 0.66 2.64 1 4 C3.47266765 3.65555119 3.47266765 3.65555119 6 3 C6.33 2.34 6.66 1.68 7 1 C10.37503669 2.1858237 12.64722731 3.27573689 15 6 C14.34 7.32 13.68 8.64 13 10 C14.22809091 11.64555699 14.22809091 11.64555699 16 13 C17.32 12.67 18.64 12.34 20 12 C20.99 14.97 21.98 17.94 23 21 C21.68 21.33 20.36 21.66 19 22 C19 23.65 19 25.3 19 27 C19.99 27.33 20.98 27.66 22 28 C21.39873418 33.41139241 21.39873418 33.41139241 19.6875 35.9375 C18 37 18 37 15.8125 36.6875 C15.214375 36.460625 14.61625 36.23375 14 36 C11.66608797 38.78114056 11.66608797 38.78114056 12.375 41.6875 C12.58125 42.450625 12.7875 43.21375 13 44 C7.25 47 7.25 47 5 47 C4.67 45.68 4.34 44.36 4 43 C1.525 43.495 1.525 43.495 -1 44 C-1.33 45.32 -1.66 46.64 -2 48 C-4.97 47.67 -7.94 47.34 -11 47 C-10.505 44.03 -10.505 44.03 -10 41 C-12.91482778 40.19032562 -14.46113217 39.78154007 -17.3125 40.9375 C-17.869375 41.288125 -18.42625 41.63875 -19 42 C-23 37.375 -23 37.375 -23 34 C-22.01 33.505 -22.01 33.505 -21 33 C-21.33 31.35 -21.66 29.7 -22 28 C-23.32 27.67 -24.64 27.34 -26 27 C-26 24.36 -26 21.72 -26 19 C-24.02 19 -22.04 19 -20 19 C-19.83312552 16.58354218 -19.83312552 16.58354218 -20 14 C-20.66 13.34 -21.32 12.68 -22 12 C-21.76793353 9.60197984 -21.20351985 8.26672477 -19.7421875 6.3515625 C-18 5 -18 5 -15.73828125 4.92578125 C-14.53751953 5.11720703 -14.53751953 5.11720703 -13.3125 5.3125 C-12.50425781 5.43238281 -11.69601563 5.55226563 -10.86328125 5.67578125 C-10.24839844 5.78277344 -9.63351563 5.88976563 -9 6 C-9 4.02 -9 2.04 -9 0 C-5.62182575 -0.84454356 -3.32534757 -1.10844919 0 0 Z M-9 17 C-11.48386059 20.72579089 -11.3804212 22.58711402 -11 27 C-9.25271222 30.72803465 -9.25271222 30.72803465 -6 33 C-0.18654053 33.53365513 -0.18654053 33.53365513 4.9375 31.125 C7.34050013 28.64918169 7.91052988 27.65611423 8.375 24.25 C7.85727342 19.76303626 6.30351741 18.02236699 3 15 C-2.06238914 13.4632033 -4.85183483 13.68146786 -9 17 Z " fill="#000000" transform="translate(76,52)"/>
<path d="M0 0 C2.31 0.33 4.62 0.66 7 1 C7 2.65 7 4.3 7 6 C10.465 5.505 10.465 5.505 14 5 C17 8.75 17 8.75 17 11 C16.34 11.33 15.68 11.66 15 12 C15 13.32 15 14.64 15 16 C16.32 16 17.64 16 19 16 C19 18.31 19 20.62 19 23 C17.68 23.33 16.36 23.66 15 24 C14.67 25.32 14.34 26.64 14 28 C14.66 28 15.32 28 16 28 C15.60196439 30.88575819 15.20990931 31.82189513 12.9375 33.75 C11.9784375 34.36875 11.9784375 34.36875 11 35 C10.01 34.34 9.02 33.68 8 33 C7.34 33 6.68 33 6 33 C6 34.65 6 36.3 6 38 C2.535 38.495 2.535 38.495 -1 39 C-1 37.68 -1 36.36 -1 35 C-3.76276177 35.52268466 -6.3260876 36.10869587 -9 37 C-11.1875 36.0625 -11.1875 36.0625 -13 35 C-12.67 33.35 -12.34 31.7 -12 30 C-12.78375 29.896875 -13.5675 29.79375 -14.375 29.6875 C-17 29 -17 29 -19 26 C-18.625 23.3125 -18.625 23.3125 -18 21 C-17.34 21 -16.68 21 -16 21 C-16.34786708 19.02463255 -16.34786708 19.02463255 -17 17 C-17.66 16.67 -18.32 16.34 -19 16 C-18.125 11.25 -18.125 11.25 -17 9 C-15.35 9 -13.7 9 -12 9 C-12 7.02 -12 5.04 -12 3 C-10.02 2.34 -8.04 1.68 -6 1 C-5.67 1.99 -5.34 2.98 -5 4 C-3.35 4 -1.7 4 0 4 C0 2.68 0 1.36 0 0 Z M-7 15 C-7.93752649 18.14741037 -8.29520857 20.11437428 -7.25 23.25 C-5.94895128 25.29017165 -5.94895128 25.29017165 -3 27 C0.36187193 26.81989972 2.99918142 26.58112046 5.9375 24.875 C7.69297303 21.77710642 7.48723574 19.47155466 7 16 C4.57552876 13.29844633 3.02200012 12.17448782 -0.5625 11.5625 C-3.5821808 12.10449399 -4.9003224 12.75034542 -7 15 Z " fill="#000000" transform="translate(88,14)"/>
</svg>
