<?xml version="1.0" encoding="UTF-8"?>
<svg version="1.1" xmlns="http://www.w3.org/2000/svg" width="512" height="512">
<path d="M0 0 C2.48262047 2.56206432 4.76344999 5.22170788 7 8 C7.74507813 8.89589844 8.49015625 9.79179687 9.2578125 10.71484375 C37.36325204 45.64840732 48.35848944 89.35751731 43.6875 133.55078125 C38.61088537 176.49803445 15.9105698 215.03402548 -17.83129883 241.72973633 C-52.41036228 268.50981856 -95.41495124 279.71625726 -138.78515625 274.72265625 C-178.41334226 269.53663743 -217.87264471 249.65528677 -243 218 C-243.42748535 217.46842285 -243.8549707 216.9368457 -244.29541016 216.38916016 C-272.84528457 180.63177092 -284.40574898 137.21410287 -279.74609375 91.859375 C-275.75798189 57.96322094 -260.37720084 26.61846814 -237 2 C-235.94896455 0.75786719 -234.90596878 -0.49116211 -233.875 -1.75 C-230.59444296 -5.59397681 -226.90311197 -8.80125757 -223 -12 C-222.09765625 -12.75152344 -221.1953125 -13.50304687 -220.265625 -14.27734375 C-153.79285969 -67.67488238 -59.6865567 -58.27385713 0 0 Z M-201 48 C-203.18580731 51.27871097 -203.25334947 52.23324492 -203.26742554 56.03463745 C-203.27595551 57.07489075 -203.28448547 58.11514404 -203.29327393 59.18692017 C-203.29236755 60.32777069 -203.29146118 61.46862122 -203.29052734 62.64404297 C-203.29724457 63.84589233 -203.30396179 65.0477417 -203.31088257 66.28601074 C-203.32664233 69.58366147 -203.33323858 72.88106036 -203.33451414 76.17873144 C-203.33641344 78.93216553 -203.34377139 81.68557546 -203.35085833 84.43900025 C-203.36714593 90.93607121 -203.37202698 97.43308675 -203.37060547 103.93017578 C-203.36940415 110.63027261 -203.39050289 117.33004725 -203.4220928 124.03006256 C-203.44825387 129.78388447 -203.45897283 135.53760116 -203.45769465 141.29148209 C-203.45718492 144.72735359 -203.46287325 148.16293885 -203.48405075 151.59875107 C-203.50703069 155.43168445 -203.49791321 159.2641769 -203.48583984 163.09716797 C-203.49707886 164.23397003 -203.50831787 165.37077209 -203.51989746 166.54202271 C-203.49297684 172.64817322 -203.49297684 172.64817322 -201.15713501 178.18533325 C-198.39245172 180.51109349 -196.59384779 180.92512817 -193 181 C-189.63943304 179.87981101 -189.03643934 179.05465901 -187 176 C-186.70970801 173.47354972 -186.70970801 173.47354972 -186.77294922 170.6105957 C-186.77310028 169.50968094 -186.77325134 168.40876617 -186.77340698 167.27449036 C-186.78372955 166.08691635 -186.79405212 164.89934235 -186.8046875 163.67578125 C-186.80893234 161.85097481 -186.80893234 161.85097481 -186.81326294 159.98930359 C-186.82447397 156.09693642 -186.84958052 152.20479784 -186.875 148.3125 C-186.88502859 145.67643561 -186.89415465 143.04036762 -186.90234375 140.40429688 C-186.92271622 133.93603861 -186.96186408 127.46827573 -187 121 C-169.84 121 -152.68 121 -135 121 C-135.1875 146.625 -135.1875 146.625 -135.27026367 154.68603516 C-135.27902874 156.80370632 -135.28667263 158.92138255 -135.29296875 161.0390625 C-135.30831665 162.13114014 -135.32366455 163.22321777 -135.33947754 164.34838867 C-135.34140808 169.96625885 -135.2805068 174.19420031 -132 179 C-129.62308271 180.82230326 -128.48732772 181.02436639 -125.5 180.875 C-122.42614616 179.79915116 -121.02654976 178.53318721 -119 176 C-118.01454801 172.99799171 -117.87047479 170.23289077 -117.85955811 167.08634949 C-117.85384796 166.09809677 -117.84813782 165.10984406 -117.84225464 164.09164429 C-117.84113678 163.01363556 -117.84001892 161.93562683 -117.83886719 160.82495117 C-117.83390228 159.68468979 -117.82893738 158.54442841 -117.82382202 157.36961365 C-117.80920628 153.59405923 -117.80239949 149.81854682 -117.796875 146.04296875 C-117.79112326 143.41986591 -117.78536553 140.79676309 -117.77960205 138.17366028 C-117.77003562 133.37486027 -117.76413574 128.57606933 -117.7611053 123.77726096 C-117.75662642 116.7245335 -117.7390832 109.67200003 -117.7101047 102.61933154 C-117.68584394 96.50149747 -117.67815908 90.38374323 -117.67642975 84.26586342 C-117.67340329 81.66755428 -117.66537504 79.06924597 -117.65224457 76.47096825 C-117.63518065 72.83490699 -117.63706547 69.19931753 -117.64355469 65.56323242 C-117.6343399 64.49129639 -117.62512512 63.41936035 -117.6156311 62.31494141 C-117.64849646 56.43302272 -118.12974613 52.1795216 -121 47 C-123.53040688 44.90587017 -124.76330603 44.99033902 -128.0625 45.125 C-131.45852857 46.13658298 -132.29907155 46.9562333 -134 50 C-135.00122171 53.00366514 -135.12112011 54.97739593 -135.11352539 58.11401367 C-135.11334412 59.69708313 -135.11334412 59.69708313 -135.11315918 61.31213379 C-135.10804321 62.41955933 -135.10292725 63.52698486 -135.09765625 64.66796875 C-135.09664917 65.68717407 -135.09564209 66.70637939 -135.09460449 67.75646973 C-135.08936913 71.56682458 -135.07540788 75.37716341 -135.0625 79.1875 C-135.041875 87.705625 -135.02125 96.22375 -135 105 C-152.16 105 -169.32 105 -187 105 C-186.95359375 101.07609375 -186.9071875 97.1521875 -186.859375 93.109375 C-186.82818927 89.31332696 -186.80389573 85.51729314 -186.78027344 81.72119141 C-186.76014525 79.08082706 -186.73284013 76.44050735 -186.69824219 73.80029297 C-186.6497795 70.00737499 -186.6270428 66.21504584 -186.609375 62.421875 C-186.58872986 61.23946228 -186.56808472 60.05704956 -186.54681396 58.83880615 C-186.54636078 57.1875473 -186.54636078 57.1875473 -186.54589844 55.50292969 C-186.53701599 54.53474304 -186.52813354 53.5665564 -186.51898193 52.56903076 C-187.14014756 49.25149714 -188.40898019 48.09171297 -191 46 C-195.31537763 44.34023937 -197.38962632 45.26782532 -201 48 Z M-84 88 C-89.05931724 93.94767701 -91.56931533 99.83671488 -92.375 107.625 C-91.91955597 111.72399624 -91.06224779 113.26009408 -88 116 C-85.15372409 117.33550847 -85.15372409 117.33550847 -82 117 C-78.49846341 114.97988274 -76.54283295 113.72833021 -75.3203125 109.8359375 C-75.02316476 108.27721516 -74.73931538 106.71589947 -74.46875 105.15234375 C-73.74981462 101.85123213 -72.53725036 100.20340163 -70 98 C-65.89903333 96.14160987 -62.6999674 95.89500489 -58.25 96.5625 C-54.42174209 98.25576792 -53.02627136 99.33712485 -51 103 C-49.17777225 108.98731974 -50.04572225 113.85251674 -52.54296875 119.5 C-54.69039807 123.18459723 -57.41737384 126.14914115 -60.390625 129.1875 C-62.22132121 130.84527324 -62.22132121 130.84527324 -62 133 C-62.56984619 133.2460498 -63.13969238 133.49209961 -63.72680664 133.74560547 C-68.31442408 136.27714648 -71.76596814 140.43955028 -75.4375 144.125 C-76.28376953 144.95515625 -77.13003906 145.7853125 -78.00195312 146.640625 C-85.64092801 154.27361792 -91.0552377 161.12698087 -92.375 172.125 C-91.89657172 175.79295012 -90.54744792 177.37762714 -88 180 C-85.65682202 181.17158899 -84.24133382 181.13877667 -81.62963867 181.16113281 C-80.7249736 181.17074036 -79.82030853 181.1803479 -78.88822937 181.19024658 C-77.90804337 181.19449646 -76.92785736 181.19874634 -75.91796875 181.203125 C-74.91163895 181.20882507 -73.90530914 181.21452515 -72.8684845 181.22039795 C-70.73582005 181.22985585 -68.60314093 181.23638506 -66.47045898 181.24023438 C-63.21116524 181.2499296 -59.95250474 181.28094159 -56.69335938 181.3125 C-54.62239958 181.31903101 -52.55143527 181.32428109 -50.48046875 181.328125 C-49.01929878 181.3466452 -49.01929878 181.3466452 -47.52861023 181.36553955 C-40.7642657 181.34968437 -40.7642657 181.34968437 -35 178 C-32.7026341 175.19265527 -32.7026341 175.19265527 -33.125 172.0625 C-34.16208465 168.43270371 -34.99439072 167.2629477 -38 165 C-40.75086191 164.65060071 -43.0883556 164.53114821 -45.828125 164.609375 C-46.57713074 164.61503479 -47.32613647 164.62069458 -48.09783936 164.62652588 C-50.482552 164.64885943 -52.86574408 164.69904614 -55.25 164.75 C-56.86976991 164.77006909 -58.48956346 164.78831915 -60.109375 164.8046875 C-64.07349966 164.84871376 -68.03649232 164.91771702 -72 165 C-70.90611855 163.73986827 -69.81077755 162.48100347 -68.71484375 161.22265625 C-68.10503662 160.52148682 -67.49522949 159.82031738 -66.86694336 159.09790039 C-62.87752284 154.61495407 -58.63398028 150.5089725 -54.0625 146.625 C-42.92032512 136.94833361 -34.69489592 125.78234008 -32.71875 110.87890625 C-32.32129391 102.64825305 -34.82370781 95.91666457 -40.0625 89.6875 C-46.37943379 83.18657785 -53.34709955 79.34357702 -62.49609375 78.87109375 C-70.62415142 79.2895429 -77.92601101 82.64606324 -84 88 Z " fill="#000000" transform="translate(374,143)"/>
<path d="M0 0 C1.01823853 0.00215515 2.03647705 0.0043103 3.08557129 0.00653076 C17.7097884 0.05623391 32.00304638 0.37042012 46.375 3.3125 C47.37160645 3.50585938 48.36821289 3.69921875 49.39501953 3.8984375 C82.32802305 10.40570577 113.37909767 22.71625814 141.375 41.3125 C141.97634766 41.71017578 142.57769531 42.10785156 143.19726562 42.51757812 C149.91033013 47.01069378 149.91033013 47.01069378 152.375 49.3125 C152.375 50.3025 152.375 51.2925 152.375 52.3125 C151.653125 52.869375 150.93125 53.42625 150.1875 54 C146.60679211 56.9441376 144.65025116 60.32354904 142.375 64.3125 C139.63934664 62.99603552 137.10126131 61.54768848 134.56640625 59.87890625 C98.12829129 36.18136302 56.2858998 19.49841946 12.2578125 19.07421875 C11.41127609 19.0644249 10.56473969 19.05463104 9.69255066 19.04454041 C-47.93751636 18.51563094 -102.21588249 33.74430882 -147.625 70.3125 C-148.21442383 70.78623047 -148.80384766 71.25996094 -149.41113281 71.74804688 C-163.05663719 82.83169333 -176.04100843 95.24934165 -186.625 109.3125 C-187.09969727 109.93253906 -187.57439453 110.55257812 -188.06347656 111.19140625 C-219.85555651 152.89501828 -237.11742666 203.18569388 -237 255.625 C-236.99945618 256.54358795 -236.99891235 257.4621759 -236.99835205 258.40859985 C-236.86078677 309.17073941 -220.56220711 360.42112056 -188.625 400.3125 C-187.98304688 401.14523437 -187.34109375 401.97796875 -186.6796875 402.8359375 C-181.35889478 409.66464718 -175.57750301 416.03694657 -169.625 422.3125 C-169.15046387 422.81571777 -168.67592773 423.31893555 -168.18701172 423.83740234 C-160.59773882 431.83301381 -152.46944713 438.74414377 -143.625 445.3125 C-143.04991699 445.74304688 -142.47483398 446.17359375 -141.88232422 446.6171875 C-111.02359058 469.6109941 -74.71665023 485.4048221 -36.625 491.3125 C-35.48893311 491.48910156 -34.35286621 491.66570312 -33.18237305 491.84765625 C-22.21551746 493.39121619 -11.37820725 493.71227929 -0.3125 493.6875 C1.06538193 493.68668427 1.06538193 493.68668427 2.47109985 493.68585205 C53.23323941 493.54828677 104.48362056 477.24970711 144.375 445.3125 C145.20773437 444.67054688 146.04046875 444.02859375 146.8984375 443.3671875 C153.72714718 438.04639478 160.09944657 432.26500301 166.375 426.3125 C166.87821777 425.83796387 167.38143555 425.36342773 167.89990234 424.87451172 C175.34433516 417.80840646 181.87341497 410.31485218 188.02490234 402.10253906 C189.34618741 400.35070143 190.69515779 398.62377645 192.05078125 396.8984375 C214.98647842 367.25929183 229.76241787 330.26255647 235.375 293.3125 C235.55015137 292.18078369 235.72530273 291.04906738 235.90576172 289.88305664 C237.45086724 278.91087776 237.77367191 268.0711889 237.75 257 C237.74968277 255.62361359 237.74968277 255.62361359 237.74935913 254.21942139 C237.71360873 238.60886439 236.61155882 223.62675588 233.375 208.3125 C233.18776367 207.40999512 233.00052734 206.50749023 232.80761719 205.57763672 C225.96238843 173.56821211 212.25036129 142.35310352 192.375 116.3125 C197.59830867 111.01836681 197.59830867 111.01836681 200.5 108.6875 C202.59678915 106.95536983 204.48411331 105.2481414 206.375 103.3125 C231.04361591 134.00959202 246.27974282 171.75866468 253.375 210.3125 C253.53581055 211.11316895 253.69662109 211.91383789 253.86230469 212.73876953 C256.68414342 227.16505641 256.68701184 241.73120645 256.75 256.375 C256.75794586 257.34252197 256.76589172 258.31004395 256.77407837 259.30688477 C256.86375462 273.54295179 255.70606461 287.26960286 253.375 301.3125 C253.18695801 302.45001709 252.99891602 303.58753418 252.80517578 304.75952148 C242.07240751 364.44941959 207.1423839 422.82950342 158.09619141 459.03125 C156.38054746 460.30837049 154.69522697 461.61840228 153.01171875 462.9375 C122.06297107 486.84767809 84.66841957 502.15933505 46.375 509.3125 C45.56998047 509.47476074 44.76496094 509.63702148 43.93554688 509.80419922 C13.88950647 515.6788185 -20.75595352 514.58629779 -50.625 508.3125 C-52.14794678 507.99901611 -52.14794678 507.99901611 -53.70166016 507.67919922 C-90.73237024 499.81098372 -125.85479285 483.74003986 -155.625 460.3125 C-156.594375 459.55453125 -157.56375 458.7965625 -158.5625 458.015625 C-173.94874823 445.68914204 -188.50293448 431.87609226 -200.625 416.3125 C-201.77162109 414.90871094 -201.77162109 414.90871094 -202.94140625 413.4765625 C-228.5282721 381.52378299 -245.03801276 342.35738322 -252.625 302.3125 C-252.78871094 301.50312988 -252.95242187 300.69375977 -253.12109375 299.85986328 C-258.59069558 271.87335724 -258.46977511 238.21828161 -252.625 210.3125 C-252.42632324 209.33764648 -252.22764648 208.36279297 -252.02294922 207.35839844 C-243.87382163 168.40129559 -228.32623263 131.70123379 -203.625 100.3125 C-202.86703125 99.343125 -202.1090625 98.37375 -201.328125 97.375 C-189.00164204 81.98875177 -175.18859226 67.43456552 -159.625 55.3125 C-158.68914062 54.54808594 -157.75328125 53.78367188 -156.7890625 52.99609375 C-112.4817359 17.51606229 -56.33754747 -0.21450343 0 0 Z " fill="#000000" transform="translate(255.625,-0.3125)"/>
<path d="M0 0 C5.62515921 5.11485996 7.56880629 10.68490976 8.3515625 18.12109375 C7.65475406 24.50850444 5.57892401 29.95623224 0.9765625 34.55859375 C-5.14746775 38.79390439 -10.59587263 40.31348238 -18.0234375 39.55859375 C-23.67574757 38.14291388 -28.77437143 35.81062172 -32.1796875 30.88671875 C-35.90192578 24.66526333 -37.28226423 18.58464458 -35.4921875 11.4375 C-32.88555872 3.94344225 -29.03886344 0.06630672 -22.0234375 -3.44140625 C-14.75424753 -6.16735249 -6.20837395 -4.42256754 0 0 Z " fill="#000000" transform="translate(445.0234375,63.44140625)"/>
</svg>
