<?xml version="1.0" encoding="UTF-8"?>
<svg version="1.1" xmlns="http://www.w3.org/2000/svg" width="610" height="610">
<path d="M0 0 C1.74475921 -0.00302653 3.48951709 -0.0069185 5.23427266 -0.01159257 C9.99271024 -0.0218167 14.751072 -0.01970509 19.50951564 -0.01541197 C24.6555269 -0.01293455 29.80152038 -0.02197148 34.94752502 -0.02944946 C45.01519447 -0.04217026 55.0828372 -0.04399343 65.15051333 -0.0416492 C73.33748907 -0.03986297 81.52445673 -0.04162221 89.7114315 -0.04587364 C91.46219049 -0.04676643 91.46219049 -0.04676643 93.24831834 -0.04767724 C95.61977043 -0.04888905 97.99122253 -0.05010319 100.36267462 -0.05131962 C122.58027074 -0.06218504 144.79785167 -0.06003738 167.01544865 -0.05393478 C187.31768602 -0.04876635 207.61987539 -0.06002091 227.92210326 -0.07903299 C248.79509216 -0.09842894 269.66805837 -0.10666432 290.54105633 -0.10290974 C302.2489681 -0.10100039 313.95683903 -0.10345937 325.66474342 -0.11762428 C335.631717 -0.12956143 345.5986246 -0.13091681 355.56559912 -0.11883412 C360.64518875 -0.11296187 365.72465781 -0.11180006 370.80423927 -0.12383652 C375.4646288 -0.13475084 380.12479791 -0.13152658 384.78517737 -0.11757483 C386.46068949 -0.1149431 388.1362192 -0.11724586 389.81171397 -0.1253107 C417.54742795 -0.24942491 444.64815091 6.99885147 465.37211609 26.26069641 C466.75656921 27.52526672 466.75656921 27.52526672 468.16899109 28.81538391 C486.10315568 45.90733635 498.35727643 70.36618786 498.99852848 95.40993786 C499.04237216 98.64209667 499.02447413 101.87174592 499.00030518 105.10400391 C499.00536541 106.91979332 499.01260552 108.73557772 499.02180332 110.55135089 C499.04054213 115.48299654 499.02859694 120.41413892 499.01108038 125.34577096 C498.99761046 130.68664987 499.01317759 136.02745974 499.02490234 141.36833191 C499.04321082 151.80735377 499.03481264 162.24618754 499.01681412 172.6852034 C499.0027488 181.17289858 498.99890375 189.66054295 499.00225639 198.14824867 C499.00273384 199.35943838 499.00321128 200.57062809 499.00370319 201.81852052 C499.00472958 204.27952268 499.00578495 206.74052484 499.00686895 209.20152698 C499.01542199 230.92644711 498.9988052 252.65127681 498.96903992 274.37617493 C498.94019526 295.42959896 498.9331259 316.4828928 498.9485321 337.53633118 C498.96531214 360.49842399 498.9693109 383.4604551 498.95182174 406.42254955 C498.94997747 408.87323017 498.94814274 411.32391081 498.94631767 413.77459145 C498.94540558 414.98017969 498.94449349 416.18576794 498.94355376 417.42788916 C498.93796041 425.90151852 498.94124423 434.37511764 498.94786263 442.84874535 C498.95561252 453.18053592 498.94878328 463.51219858 498.92368758 473.84396347 C498.91123227 479.10980935 498.90499781 484.37545649 498.91622925 489.64130974 C498.92633458 494.47052337 498.91767912 499.29934224 498.89464807 504.12850819 C498.88952622 505.86643023 498.89098213 507.6043882 498.90004272 509.34229418 C499.02968514 536.48721295 488.97019113 561.08973599 470.05180359 580.58100891 C450.73802206 599.89479044 426.16458795 610.72777157 398.79316521 610.79567003 C397.13344504 610.78702703 395.47372684 610.77800064 393.81401062 610.76863098 C392.00478682 610.77325168 390.19556678 610.77961238 388.38635445 610.78753996 C383.46359012 610.80409592 378.54113964 610.79605007 373.61837482 610.78359509 C368.290398 610.77449014 362.9624726 610.78854115 357.63450623 610.79951477 C347.21629202 610.81724678 336.79819347 610.81348377 326.37997484 610.80186421 C317.90845324 610.79280916 309.43696391 610.79161483 300.96543884 610.79595947 C299.75704224 610.7965724 298.54864563 610.79718534 297.30363095 610.79781684 C294.84834845 610.79909582 292.39306596 610.80039267 289.93778348 610.80170721 C266.94615673 610.81309743 243.95459391 610.80002377 220.96297765 610.77850574 C201.26013242 610.7606362 181.55738149 610.76374075 161.85453796 610.78218079 C138.94189592 610.80361504 116.02930983 610.81199894 93.11665916 610.79973173 C90.6707039 610.79845761 88.22474862 610.79720013 85.77879333 610.79595947 C83.97388323 610.79503382 83.97388323 610.79503382 82.1325103 610.79408947 C73.67690375 610.79064423 65.22133285 610.79644705 56.76573181 610.80587769 C46.45295823 610.81712746 36.14030634 610.81399513 25.8275466 610.79275471 C20.57171276 610.78228435 15.3160814 610.77805364 10.06024933 610.79135132 C5.23892861 610.80336463 0.41799601 610.79656696 -4.40329003 610.77544111 C-6.13725476 610.77101262 -7.87125301 610.77315557 -9.60519576 610.78294426 C-37.76895069 610.92960712 -62.159382 600.59528983 -82.62788391 581.26069641 C-104.31131809 557.9171243 -111.96575696 530.7139008 -111.88858032 499.6328125 C-111.89160685 497.88805329 -111.89549883 496.14329541 -111.90017289 494.39853984 C-111.91039702 489.64010226 -111.90828541 484.8817405 -111.9039923 480.12329686 C-111.90151487 474.9772856 -111.9105518 469.83129212 -111.91802979 464.68528748 C-111.93075058 454.61761803 -111.93257375 444.5499753 -111.93022952 434.48229917 C-111.92844329 426.29532343 -111.93020253 418.10835577 -111.93445396 409.921381 C-111.93504915 408.75420834 -111.93564434 407.58703568 -111.93625757 406.38449416 C-111.93746937 404.01304207 -111.93868351 401.64158997 -111.93989994 399.27013788 C-111.95076536 377.05254176 -111.9486177 354.83496083 -111.9425151 332.61736385 C-111.93734667 312.31512648 -111.94860123 292.01293711 -111.96761332 271.71070924 C-111.98700926 250.83772034 -111.99524464 229.96475413 -111.99149007 209.09175617 C-111.98958071 197.3838444 -111.99203969 185.67597347 -112.00620461 173.96806908 C-112.01814175 164.0010955 -112.01949713 154.0341879 -112.00741444 144.06721338 C-112.00154219 138.98762375 -112.00038038 133.90815469 -112.01241684 128.82857323 C-112.02333116 124.1681837 -112.02010691 119.50801459 -112.00615516 114.84763513 C-112.00352342 113.17212301 -112.00582618 111.4965933 -112.01389102 109.82109853 C-112.15192119 78.97559588 -102.66123384 51.39794539 -80.87788391 29.07319641 C-69.46833099 17.77861499 -55.85999852 10.25011189 -40.75288391 5.01069641 C-40.05848206 4.76424377 -39.3640802 4.51779114 -38.64863586 4.26387024 C-26.06041898 0.10517303 -13.09979192 -0.03252775 0 0 Z M-40.62788391 38.26069641 C-41.4876886 38.66932922 -42.34749329 39.07796204 -43.23335266 39.49897766 C-60.06027986 47.92430793 -71.05498257 62.90040398 -77.62788391 80.26069641 C-80.71587549 90.85230514 -81.05859187 100.96477402 -81.01556396 111.89530945 C-81.01974498 113.64078316 -81.02522668 115.38625416 -81.03188378 117.13172019 C-81.04625637 121.89212017 -81.04211945 126.65234582 -81.03471696 131.41275501 C-81.02996722 136.56080026 -81.04251104 141.70880876 -81.05273438 146.85684204 C-81.06989227 156.92819703 -81.07076866 166.99948955 -81.06552147 177.07085536 C-81.06147301 185.26022678 -81.06293135 193.4495798 -81.06826973 201.63895035 C-81.06901815 202.80641173 -81.06976657 203.97387311 -81.07053768 205.1767121 C-81.07206922 207.54872993 -81.07360757 209.92074775 -81.07515264 212.29276557 C-81.08886674 234.51510757 -81.08344761 256.73741431 -81.07196743 278.9597555 C-81.06203568 299.26915085 -81.07497669 319.57845508 -81.09890162 339.88783638 C-81.12331093 360.76647545 -81.13289601 381.64507211 -81.1262489 402.52372515 C-81.12276082 414.23552833 -81.12496159 425.94726145 -81.14249992 437.6590538 C-81.15724477 447.6286367 -81.15782745 457.5981002 -81.14042901 467.56768082 C-81.1319356 472.6492037 -81.12972888 477.73051349 -81.14508057 482.81202507 C-81.15898703 487.47304122 -81.15408845 492.13366291 -81.13484133 496.79465659 C-81.13109922 498.47149577 -81.13395105 500.14836701 -81.14445298 501.82517748 C-81.22460982 515.61540673 -79.59576385 529.11903211 -73.00288391 541.51069641 C-72.66224915 542.16562073 -72.32161438 542.82054504 -71.97065735 543.49531555 C-63.31841717 559.47392382 -48.93931723 571.5738502 -31.62788391 577.26069641 C-20.96020719 580.21173653 -10.9723061 580.69159529 0.00672913 580.64837646 C1.75220284 580.65255748 3.49767384 580.65803918 5.24313986 580.66469628 C10.00353985 580.67906887 14.76376549 580.67493195 19.52417469 580.66752946 C24.67221993 580.66277972 29.82022843 580.67532354 34.96826172 580.68554688 C45.03961671 580.70270477 55.11090923 580.70358116 65.18227504 580.69833397 C73.37164646 580.69428551 81.56099948 580.69574385 89.75037003 580.70108223 C90.9178314 580.70183065 92.08529278 580.70257907 93.28813178 580.70335018 C95.66014961 580.70488172 98.03216743 580.70642007 100.40418525 580.70796514 C122.62652724 580.72167924 144.84883399 580.71626011 167.07117517 580.70477993 C187.38057052 580.69484818 207.68987476 580.70778919 227.99925606 580.73171412 C248.87789513 580.75612343 269.75649179 580.76570851 290.63514483 580.7590614 C302.34694801 580.75557332 314.05868113 580.75777409 325.77047348 580.77531242 C335.74005638 580.79005727 345.70951988 580.79063995 355.6791005 580.77324151 C360.76062338 580.7647481 365.84193316 580.76254138 370.92344475 580.77789307 C375.5844609 580.79179953 380.24508259 580.78690095 384.90607627 580.76765383 C386.58291545 580.76391172 388.25978668 580.76676355 389.93659715 580.77726548 C403.72682641 580.85742232 417.23045179 579.22857635 429.62211609 572.63569641 C430.27704041 572.29506165 430.93196472 571.95442688 431.60673523 571.60346985 C448.49599624 562.45812125 460.40709312 547.22064944 466.18461609 528.94819641 C467.99914321 522.6468386 468.49715754 516.3747245 468.50633717 509.83790684 C468.5086894 509.1204414 468.51104163 508.40297597 468.51346514 507.66376916 C468.52010999 505.26511899 468.51969829 502.86652355 468.51928711 500.46786499 C468.52258855 498.7284353 468.5263147 496.98900637 468.53042859 495.24957842 C468.54042483 490.4734168 468.54416155 485.69726775 468.5468179 480.92109716 C468.55072799 475.76816805 468.56030581 470.61524883 468.56903076 465.46232605 C468.58877484 453.02012095 468.59885859 440.57791507 468.60775855 428.13569823 C468.61214466 422.27265934 468.61751062 416.40962135 468.62274742 410.54658318 C468.63975733 391.05029647 468.65425093 371.55401031 468.66149616 352.05771732 C468.66340597 347.00062115 468.66532632 341.94352499 468.6672821 336.88642883 C468.66776584 335.62955426 468.66824958 334.37267969 468.66874798 333.07771801 C468.67704619 312.72261885 468.70238067 292.36757849 468.73486278 272.012505 C468.76795781 251.10245549 468.78594712 230.19243585 468.7891404 209.28236002 C468.79130318 197.54696818 468.80001802 185.81166212 468.82560158 174.07629585 C468.8473419 164.08093681 468.85534257 154.08568438 468.8456348 144.09030438 C468.84109984 138.9946447 468.84292951 133.89920484 468.86239624 128.80357552 C468.88009817 124.1293412 468.87897353 119.45548593 468.86349895 114.78124719 C468.86113351 113.09948241 468.86539052 111.41769089 468.8773276 109.73596681 C468.96909471 95.94179681 467.3336252 82.43762622 460.80961609 70.01069641 C460.47445984 69.35722229 460.13930359 68.70374817 459.79399109 68.0304718 C456.04254251 61.09553989 451.01144457 55.69951543 445.37211609 50.26069641 C444.42272156 49.26489563 444.42272156 49.26489563 443.45414734 48.24897766 C439.43433372 44.30015412 434.8296538 41.66369708 429.87211609 39.07319641 C429.27439392 38.75189758 428.67667175 38.43059875 428.06083679 38.0995636 C415.12643829 31.69610099 401.61409538 30.67099068 387.48353577 30.75949097 C385.73490944 30.75558865 383.98628631 30.74994081 382.23767054 30.74272007 C377.47786776 30.72808133 372.71839971 30.73807704 367.95860815 30.75245678 C362.80791002 30.76362899 357.65725648 30.75160349 352.50656128 30.74261475 C342.43478796 30.72872322 332.3631405 30.73620792 322.29137324 30.75129033 C310.55075516 30.76819896 298.81016802 30.7649341 287.06954153 30.76119625 C266.11601238 30.75532528 245.16254344 30.76945994 224.20903015 30.79414368 C203.89748377 30.81806831 183.58601778 30.82514454 163.27445984 30.81465149 C141.12948393 30.8032317 118.98454516 30.80132487 96.83956969 30.81574959 C94.47650314 30.81727535 92.11343658 30.81879571 89.75037003 30.82031059 C88.58784116 30.82106841 87.42531229 30.82182622 86.22755527 30.822607 C78.05208723 30.82734113 69.87663583 30.82550461 61.70116806 30.82124519 C51.73378181 30.81630899 41.76647144 30.82234558 31.79910253 30.84213949 C26.71785193 30.85198304 21.63671665 30.85714838 16.55545998 30.84924698 C11.89714707 30.84215165 7.23906606 30.84908421 2.58078356 30.86685061 C0.90269714 30.8708702 -0.77541067 30.86993747 -2.4534889 30.86333174 C-15.88571746 30.8150131 -28.48640268 31.9419504 -40.62788391 38.26069641 Z " fill="#000000" transform="translate(111.62788391113281,-0.2606964111328125)"/>
<path d="M0 0 C12.54 0 25.08 0 38 0 C38 38.61 38 77.22 38 117 C86.84 117 135.68 117 186 117 C186 78.39 186 39.78 186 0 C198.54 0 211.08 0 224 0 C224 91.08 224 182.16 224 276 C211.46 276 198.92 276 186 276 C186 234.09 186 192.18 186 149 C137.16 149 88.32 149 38 149 C38 190.91 38 232.82 38 276 C25.46 276 12.92 276 0 276 C0 184.92 0 93.84 0 0 Z " fill="#000000" transform="translate(93,178)"/>
<path d="M0 0 C50.82 0 101.64 0 154 0 C154 32.0453869 154 32.0453869 142.4375 44.1171875 C138.18057978 48.72456968 134.51130844 53.58426575 130.875 58.6875 C125.79815427 65.64532499 120.55975025 72.46067462 115.24511719 79.23779297 C110.50641149 85.30043232 105.93325877 91.47328137 101.390625 97.68359375 C96.99768833 103.67751178 92.51759194 109.59959344 88 115.5 C82.34696973 122.88549787 76.78565963 130.32967275 71.29125977 137.83374023 C66.32541678 144.5989545 61.24730261 151.27504355 56.11914062 157.91796875 C51.71447557 163.65384222 47.45987263 169.48768614 43.23266602 175.35522461 C42.63192513 176.18809746 42.03118423 177.02097031 41.41223907 177.87908173 C39.94097344 179.91901427 38.47024133 181.95932915 37 184 C37.92628912 183.99861731 37.92628912 183.99861731 38.87129116 183.99720669 C53.87631149 183.97515111 68.88132687 183.95858828 83.88635921 183.94818783 C91.14258849 183.94302495 98.39880696 183.93598242 105.6550293 183.92456055 C111.97733856 183.91461344 118.29964001 183.90814651 124.62195688 183.90591151 C127.9715675 183.90460444 131.32115574 183.90151887 134.6707592 183.89426994 C138.40413645 183.8870638 142.13746658 183.88600888 145.87084961 183.88647461 C146.98934296 183.88287933 148.1078363 183.87928406 149.26022339 183.87557983 C150.27129654 183.8769545 151.28236969 183.87832916 152.32408142 183.87974548 C153.65008063 183.87836279 153.65008063 183.87836279 155.0028677 183.87695217 C157 184 157 184 158 185 C158 193.91 158 202.82 158 212 C103.55 212 49.1 212 -7 212 C-7 181.08315451 -7 181.08315451 2.875 170.6015625 C7.2422514 165.79634055 11.1114589 160.69514397 15 155.5 C16.352829 153.72814455 17.70698863 151.95730422 19.0625 150.1875 C22.76273579 145.33094052 26.39232654 140.42554504 30 135.5 C35.58229293 127.8785133 41.28354788 120.35494589 47.02587891 112.85351562 C51.5385826 106.94748867 55.98021248 100.99420594 60.375 95 C65.34586796 88.22204454 70.40159454 81.52697178 75.54785156 74.88085938 C85.74765946 61.66981028 95.77698209 48.3378192 105.62817383 34.86499023 C107.07299132 32.9007687 108.53697608 30.95069856 110 29 C73.7 28.67 37.4 28.34 0 28 C0 18.76 0 9.52 0 0 Z " fill="#000000" transform="translate(372,242)"/>
</svg>
