<?xml version="1.0" encoding="UTF-8"?>
<svg version="1.1" xmlns="http://www.w3.org/2000/svg" width="143" height="151">
<path d="M0 0 C4.71202225 -0.26730818 7.89012407 0.49554347 12.203125 2.37109375 C13.3478125 2.86287109 14.4925 3.35464844 15.671875 3.86132812 C16.85265625 4.38146484 18.0334375 4.90160156 19.25 5.4375 C21.044375 6.2119043 21.044375 6.2119043 22.875 7.00195312 C31.26116071 10.63058036 31.26116071 10.63058036 34 12 C34.72803766 17.53308619 32.69099485 21.03378432 30.09375 25.73046875 C28.78292904 28.03053267 28.78292904 28.03053267 29 31 C29.95849854 31.38631592 30.91699707 31.77263184 31.90454102 32.1706543 C48.49399767 38.8607134 65.08227807 45.55777464 81.60421753 52.41323853 C82.94650369 52.96904964 84.28986437 53.52227317 85.63430786 54.07284546 C87.50137139 54.83821232 89.36408472 55.6141656 91.2265625 56.390625 C92.27408691 56.82407227 93.32161133 57.25751953 94.40087891 57.70410156 C96.81264892 58.90658843 98.26822409 59.96759433 100 62 C96.60695187 72.82887701 96.60695187 72.82887701 94 77 C92.68 77.33 91.36 77.66 90 78 C90 87.24 90 96.48 90 106 C93.3 106 96.6 106 100 106 C100 116.56 100 127.12 100 138 C104.62 138 109.24 138 114 138 C114 141.96 114 145.92 114 150 C67.14 150 20.28 150 -28 150 C-28 146.04 -28 142.08 -28 138 C-12.49 138 3.02 138 19 138 C19.33 134.04 19.66 130.08 20 126 C20.31133939 123.45225741 20.64670324 120.90723106 21.015625 118.3671875 C21.11170044 117.69886398 21.20777588 117.03054047 21.3067627 116.34196472 C21.61765655 114.18578292 21.93366842 112.03039013 22.25 109.875 C22.47063527 108.3547737 22.69100795 106.83450927 22.91113281 105.31420898 C23.36948577 102.15396314 23.83026388 98.99408419 24.29296875 95.83447266 C24.8853101 91.78895739 25.47256319 87.74272353 26.0581665 83.69622803 C26.5112267 80.56818221 26.96638617 77.44044482 27.42224121 74.31280518 C27.63964544 72.82016522 27.85652908 71.32744934 28.07287598 69.83465576 C28.37465876 67.75535017 28.67913257 65.6764564 28.984375 63.59765625 C29.15678711 62.41695557 29.32919922 61.23625488 29.50683594 60.01977539 C29.89748582 57.6277217 30.35823687 55.33410828 31 53 C29.60550891 52.516941 28.20933293 52.03874483 26.8125 51.5625 C26.03519531 51.29566406 25.25789063 51.02882812 24.45703125 50.75390625 C21.98690144 49.99598089 19.54007136 49.46470222 17 49 C16.64695801 49.47421387 16.29391602 49.94842773 15.93017578 50.43701172 C14.33012824 52.58426394 12.72759558 54.72964893 11.125 56.875 C10.56941406 57.62136719 10.01382813 58.36773437 9.44140625 59.13671875 C8.90644531 59.85214844 8.37148438 60.56757812 7.8203125 61.3046875 C7.32805176 61.96452637 6.83579102 62.62436523 6.32861328 63.30419922 C5 65 5 65 3 67 C-2.96568991 66.79428655 -9.59450528 65.40549472 -14 61 C-14.29932852 54.74973547 -13.51739435 48.94847578 -12.375 42.8125 C-12.1996875 41.86213867 -12.024375 40.91177734 -11.84375 39.93261719 C-10.53021616 33.11528661 -8.90068223 26.42655413 -7 19.75 C-6.7632959 18.91831299 -6.5265918 18.08662598 -6.28271484 17.22973633 C-4.53813744 11.33661299 -2.3653751 5.67029641 0 0 Z M38 56 C38 58.31 38 60.62 38 63 C39.98 61.68 41.96 60.36 44 59 C41.1315587 56.89767656 41.1315587 56.89767656 38 56 Z M56 64 C57.58336168 79.77281996 59.85393349 95.43888914 62.125 111.125 C62.50156528 113.74084754 62.87786928 116.35673271 63.25390625 118.97265625 C64.16626248 125.31554061 65.08182979 131.65795478 66 138 C67.98 138 69.96 138 72 138 C72.33 127.77 72.66 117.54 73 107 C77.455 106.505 77.455 106.505 82 106 C82 95.44 82 84.88 82 74 C78.08125 72.35 74.1625 70.7 70.125 69 C68.89023926 68.47792969 67.65547852 67.95585938 66.38330078 67.41796875 C65.41376465 67.01191406 64.44422852 66.60585937 63.4453125 66.1875 C62.45031738 65.76855469 61.45532227 65.34960938 60.43017578 64.91796875 C58.12113388 63.88221078 58.12113388 63.88221078 56 64 Z M43.4375 69 C42.79683594 69.556875 42.15617187 70.11375 41.49609375 70.6875 C41.00238281 71.120625 40.50867188 71.55375 40 72 C42.51027705 74.5999298 44.9863684 76.99091227 48 79 C48.66 79 49.32 79 50 79 C49.34 74.71 48.68 70.42 48 66 C46.12175109 66 44.78481163 67.82416439 43.4375 69 Z M35 79 C34.34 84.28 33.68 89.56 33 95 C35.1346875 93.824375 35.1346875 93.824375 37.3125 92.625 C38.11300781 92.18414062 38.91351563 91.74328125 39.73828125 91.2890625 C41.53527943 90.26486665 43.27900708 89.14732862 45 88 C43.59070303 84.52867905 42.09394917 83.11906726 38.875 81.25 C37.59625 80.5075 36.3175 79.765 35 79 Z M43.875 97 C43.31167969 97.3815625 42.74835938 97.763125 42.16796875 98.15625 C40.77585159 99.10005824 39.38755792 100.04950161 38 101 C41.43153914 104.53191322 44.97375062 107.7137505 48.8125 110.8125 C49.78832031 111.60269531 50.76414062 112.39289063 51.76953125 113.20703125 C52.50558594 113.79871094 53.24164063 114.39039062 54 115 C54.93979382 111.96143341 54.99875808 109.79304528 54.44140625 106.671875 C54.30283203 105.87265625 54.16425781 105.0734375 54.02148438 104.25 C53.87001953 103.425 53.71855469 102.6 53.5625 101.75 C53.41490234 100.90953125 53.26730469 100.0690625 53.11523438 99.203125 C52.7508064 97.13411456 52.37637459 95.06687061 52 93 C48.69246577 93 46.55580427 95.17477156 43.875 97 Z M31 107 C30.29959257 111.24797777 29.61691386 115.49861822 28.9375 119.75 C28.73833984 120.9565625 28.53917969 122.163125 28.33398438 123.40625 C28.15029297 124.56640625 27.96660156 125.7265625 27.77734375 126.921875 C27.60452881 127.99018555 27.43171387 129.05849609 27.25366211 130.15917969 C27.01787303 132.79983578 27.15838896 134.51449449 28 137 C29.39412109 136.00419922 29.39412109 136.00419922 30.81640625 134.98828125 C33.29557292 133.21744792 35.77473958 131.44661458 38.25390625 129.67578125 C38.86637207 129.23572754 39.47883789 128.79567383 40.10986328 128.34228516 C41.40585401 127.42193421 42.71217525 126.51600906 44.02685547 125.62255859 C45.71799975 124.46232028 47.36359978 123.23625088 49 122 C49 121.34 49 120.68 49 120 C47.51900565 118.60152122 47.51900565 118.60152122 45.5703125 117.21484375 C44.50103516 116.41916992 44.50103516 116.41916992 43.41015625 115.60742188 C42.65605469 115.05634766 41.90195313 114.50527344 41.125 113.9375 C40.37863281 113.38255859 39.63226563 112.82761719 38.86328125 112.25585938 C35.07816538 109.3936886 35.07816538 109.3936886 31 107 Z M47.9375 131.4375 C47.17888672 131.95376953 46.42027344 132.47003906 45.63867188 133.00195312 C44.92130859 133.49501953 44.20394531 133.98808594 43.46484375 134.49609375 C42.800896 134.95169678 42.13694824 135.4072998 41.45288086 135.87670898 C40.97343018 136.24739502 40.49397949 136.61808105 40 137 C40 137.33 40 137.66 40 138 C45.94 138 51.88 138 58 138 C57.67 134.04 57.34 130.08 57 126 C54.04742984 126 50.2995248 129.80969982 47.9375 131.4375 Z " fill="#000000" transform="translate(28,0)"/>
</svg>
