<?xml version="1.0" encoding="UTF-8"?>
<svg version="1.1" xmlns="http://www.w3.org/2000/svg" width="512" height="512">
<path d="M0 0 C3.61412677 1.7485213 6.79996086 3.86900418 10.125 6.125 C79.15771386 51.25194073 192.40965628 47.42041752 365 32 C391.60579722 26.41022469 421.15429832 19.76649158 442.8984375 2.56640625 C445 1 445 1 448 0 C448.11446359 38.44717656 448.20255812 76.89432743 448.25532665 115.34163993 C448.26158012 119.88148745 448.26805174 124.42133463 448.2746582 128.96118164 C448.27596976 129.86497712 448.27728131 130.7687726 448.2786326 131.69995583 C448.30038458 146.33091058 448.33980497 160.96176702 448.38576398 175.59266346 C448.43253439 190.60717555 448.46029663 205.62163618 448.47044247 220.63621813 C448.47730043 229.89982335 448.49895446 239.1631507 448.53958233 248.42667038 C448.56602792 254.78045586 448.57399689 261.13409784 448.56750689 267.48793434 C448.56430678 271.15294712 448.5691852 274.81747458 448.59602737 278.48240089 C448.62494611 282.45999828 448.61492166 286.43696666 448.60127258 290.41465759 C448.61583679 291.56739935 448.630401 292.72014111 448.64540654 293.90781444 C448.56144124 302.96107197 445.94871833 308.82062351 440 315.5625 C384.53027211 367.2149563 260.99465077 360.11418088 190.34765625 357.6875 C46.16114878 352.26743217 46.16114878 352.26743217 7.9453125 314.99609375 C0.83933345 307.22669342 -0.43868794 301.13273542 -0.36076355 290.77542114 C-0.36332682 289.53297823 -0.3658901 288.29053531 -0.36853105 287.01044261 C-0.37261449 283.56913012 -0.36325307 280.12833077 -0.34819686 276.68708038 C-0.33523099 272.97344993 -0.33962635 269.25983508 -0.34190369 265.54618835 C-0.34347607 259.1145058 -0.3340705 252.68291461 -0.31719017 246.25125504 C-0.29280003 236.95219159 -0.28499489 227.65317227 -0.2812262 218.3540803 C-0.27466174 203.26662746 -0.25470071 188.17922329 -0.22631836 173.09179688 C-0.19877766 158.43652591 -0.17754413 143.78126818 -0.16479492 129.12597656 C-0.16400675 128.22249324 -0.16321858 127.31900992 -0.16240653 126.38814832 C-0.15849139 121.85559862 -0.15470027 117.32304883 -0.15097082 112.79049897 C-0.11987507 75.19363161 -0.06703941 37.5968196 0 0 Z M223 85 C221.15294305 87.46681325 219.40993683 89.94792643 217.6875 92.5 C211.55571309 101.38158003 204.93492662 109.73692986 198 118 C197.21012695 118.94649414 197.21012695 118.94649414 196.40429688 119.91210938 C190.85617415 126.54648165 185.22375244 132.94783547 179.01953125 138.984375 C176.4216188 141.57726247 174.05230943 144.33299745 171.66796875 147.12109375 C170.0804283 148.90940044 168.42143513 150.54248462 166.6875 152.1875 C146.71019844 171.94134181 133.16325787 198.93461438 131.96875 227.125 C132.1802125 253.34635014 141.13753604 276.70565932 159.4375 295.8125 C177.16754654 312.7504826 201.46827838 321.43816836 225.79907227 321.3684082 C251.57670259 320.71211397 273.96512038 310.2369511 292 292 C304.22384387 278.60800723 312.81071584 261.12394731 315 243 C315.13277344 241.90945313 315.26554688 240.81890625 315.40234375 239.6953125 C318.08015388 211.232297 308.24211355 186.24634895 291 164 C290.24589844 163.02160156 289.49179687 162.04320312 288.71484375 161.03515625 C284.25855091 155.43138765 279.46673224 150.34414571 274.34765625 145.34375 C271.62760292 142.62822255 269.13221167 139.77169641 266.63671875 136.8515625 C265.03599504 135.04071993 263.36307696 133.36591757 261.625 131.6875 C257.50949142 127.62662207 253.94819828 123.16291731 250.33789062 118.65429688 C248.8822845 116.85444521 247.40394333 115.07499151 245.921875 113.296875 C239.65994932 105.74680315 233.79134758 98.09580751 228.42626953 89.8762207 C227.33070364 88.21909904 226.17133889 86.60445692 225 85 C224.34 85 223.68 85 223 85 Z " fill="#000000" transform="translate(32,124)"/>
<path d="M0 0 C6.23203223 6.09405366 10.09311415 11.32981017 10.5 20.25 C10.29964906 29.02537124 6.77192693 35.52813817 1 42 C-1.08796288 43.57781975 -3.10372808 44.99586737 -5.3125 46.375 C-5.92859131 46.76220215 -6.54468262 47.1494043 -7.17944336 47.54833984 C-77.20880505 90.58472683 -186.57918395 86.36588956 -365.51782227 68.43896484 C-383.87437908 63.90008207 -401.43519938 58.20833971 -418 49 C-419.06347656 48.4121875 -420.12695312 47.824375 -421.22265625 47.21875 C-429.42136951 42.36352276 -435.25169935 36.31368554 -438 27 C-439.15044886 17.14448812 -437.62659366 10.88724589 -431.56640625 3.17578125 C-395.25881958 -37.11568026 -308.50806971 -37.63162801 -258.5625 -40.25 C-183.39383973 -43.94195366 -69.87872613 -49.22769485 0 0 Z " fill="#000000" transform="translate(470,71)"/>
<path d="M0 0 C0.66 0 1.32 0 2 0 C3.55800358 1.86289665 5.0035684 3.73208846 6.4375 5.6875 C16.69782738 19.33294818 27.99219453 32.17511089 40.1875 44.125 C45.21520229 49.1045903 49.62622907 54.44493709 54 60 C55.23943359 61.51400391 55.23943359 61.51400391 56.50390625 63.05859375 C71.67710599 81.81507872 79.96176564 103.77109549 77.4375 128.125 C75.03248508 147.13038328 67.62306772 162.30408165 54 176 C53.41089844 176.62390625 52.82179688 177.2478125 52.21484375 177.890625 C44.18079194 185.73044699 31.8351517 191.32142161 21 194 C20.22398437 194.20238281 19.44796875 194.40476562 18.6484375 194.61328125 C-2.3651265 199.27943519 -23.76758732 195.09497973 -42 184 C-45.22573983 181.86961931 -48.13609446 179.59252739 -51 177 C-51.66 176.43152344 -52.32 175.86304688 -53 175.27734375 C-63.15461348 165.93589268 -69.17864152 154.076463 -73 141 C-73.23332031 140.21238281 -73.46664062 139.42476562 -73.70703125 138.61328125 C-79.07051202 117.73815104 -75.05021916 95.43217321 -64.21533203 77.05786133 C-54.95935036 61.97475057 -42.97732687 48.63403481 -30.33935547 36.32495117 C-23.3072307 29.45625306 -17.06136415 21.95268477 -10.8125 14.375 C-10.20986328 13.65054688 -9.60722656 12.92609375 -8.98632812 12.1796875 C-6.38821355 9.03114909 -3.88738127 5.92623156 -1.69921875 2.4765625 C-1.13847656 1.65929687 -0.57773438 0.84203125 0 0 Z " fill="#000000" transform="translate(255,234)"/>
</svg>
