<?xml version="1.0" encoding="UTF-8"?>
<svg version="1.1" xmlns="http://www.w3.org/2000/svg" width="512" height="512">
<path d="M0 0 C7.59 0 15.18 0 23 0 C23 13.86 23 27.72 23 42 C52.04 42 81.08 42 111 42 C112.68322491 46.20806228 113.868413 50.21899955 114.87939453 54.60424805 C115.05525085 55.35279053 115.23110718 56.10133301 115.41229248 56.87255859 C115.98966148 59.33472656 116.56135572 61.79817246 117.1328125 64.26171875 C117.53323803 65.97620586 117.93394811 67.69062654 118.33493042 69.40498352 C119.17284767 72.99118228 120.00809381 76.57798903 120.84130859 80.1652832 C121.91092577 84.76989948 122.9859952 89.37322112 124.06289864 93.97613811 C124.88989335 97.51265695 125.71462483 101.04970035 126.53860092 104.5869236 C126.93436633 106.28517513 127.33069962 107.98329442 127.72760391 109.68128014 C128.28041592 112.04832337 128.83032693 114.41602136 129.37939453 116.78393555 C129.54456573 117.48889664 129.70973694 118.19385773 129.87991333 118.92018127 C131 123.77113147 131 123.77113147 131 126 C145.85 126 160.7 126 176 126 C181.43243243 142.2972973 181.43243243 142.2972973 181 149 C183.97 149 186.94 149 190 149 C190 158.24 190 167.48 190 177 C189.34 177 188.68 177 188 177 C189.485 185.415 189.485 185.415 191 194 C193.97 194 196.94 194 200 194 C200 205.55 200 217.1 200 229 C186.47 229 172.94 229 159 229 C159.66 231.64 160.32 234.28 161 237 C161.81428408 249.6214032 157.79931063 261.43568179 150.11328125 271.4609375 C141.04662062 281.06093111 129.65358208 285.92077558 116.5 286.375 C102.97436737 285.92674416 91.32181468 280.77509531 82 271 C74.54231634 261.90610399 71.26498727 251.65943976 71 240 C71.66 236.37 72.32 232.74 73 229 C14.92 229.33 -43.16 229.66 -103 230 C-102.67 231.65 -102.34 233.3 -102 235 C-100.79197736 249.49627163 -104.77504807 261.03109416 -113.8125 272.25 C-121.56661534 280.77952688 -132.2260871 285.26884059 -143.578125 286.21484375 C-157.12977873 286.69883138 -169.12351107 282.22167646 -179.08203125 273.078125 C-187.64466592 263.80048418 -191.56481357 253.59948752 -191.25 241.125 C-191.24484375 240.28453125 -191.2396875 239.4440625 -191.234375 238.578125 C-191.18954421 235.07011563 -191.11890176 232.35670529 -190 229 C-193.96 229 -197.92 229 -202 229 C-201.649375 230.19625 -201.29875 231.3925 -200.9375 232.625 C-198.55538772 243.62069221 -200.62687274 254.23697237 -206 264 C-212.67052348 274.307547 -221.32223776 281.72783543 -233.3125 284.75 C-245.61039826 287.3021294 -257.7255167 286.47509569 -268.75 279.9375 C-279.16021319 272.69891153 -286.21292882 263.58309667 -288.8125 251.09765625 C-290.11699457 242.91796729 -289.69395319 237.46976595 -288 229 C-295.92 229 -303.84 229 -312 229 C-312 211.84 -312 194.68 -312 177 C-305.73 177 -299.46 177 -293 177 C-293 182.61 -293 188.22 -293 194 C-196.31 194 -99.62 194 0 194 C0 129.98 0 65.96 0 0 Z M32 73 C32 93.46 32 113.92 32 135 C55.1 135 78.2 135 102 135 C100.5975 128.44125 99.195 121.8825 97.75 115.125 C97.31655273 113.09617676 96.88310547 111.06735352 96.43652344 108.97705078 C95.2972312 103.65002271 94.15137156 98.32443025 93 93 C92.80768799 92.11066772 92.61537598 91.22133545 92.41723633 90.30505371 C91.87009973 87.78334062 91.31873794 85.2625957 90.765625 82.7421875 C90.51954498 81.60766647 90.51954498 81.60766647 90.26849365 80.45022583 C89.44692161 76.62081004 89.44692161 76.62081004 88 73 C69.52 73 51.04 73 32 73 Z M-264.84375 228.15625 C-268.60848666 234.15947873 -268.81708276 240.09350043 -268 247 C-265.77254199 254.40759292 -261.74307266 259.27834259 -255 263 C-248.22574664 265.88533013 -241.44766069 265.36605423 -234.6875 262.6875 C-228.49955427 258.8020457 -224.47468686 254.9980899 -222 248 C-221.04301418 241.25160001 -221.09799151 234.67579938 -224.671875 228.7109375 C-229.17059403 222.91552887 -234.93570235 218.76991012 -242.3125 217.6484375 C-251.63067775 217.0951707 -259.03230121 220.99330149 -264.84375 228.15625 Z M-165.5 227 C-169.93983659 233.40162485 -170.87123821 239.33095259 -170 247 C-167.72721906 254.2851843 -162.74201381 259.63019331 -156.01171875 263.20703125 C-149.67782748 265.7036913 -143.39244635 265.53776164 -137.1015625 263.0703125 C-130.5248141 259.7208161 -126.3853569 254.9765277 -124 248 C-122.234839 241.76462608 -123.0869054 236.62195609 -125.5 230.65625 C-128.63367625 225.10703165 -133.31684366 221.37012239 -138.9375 218.5 C-149.45641679 216.78262583 -158.58492123 218.13795731 -165.5 227 Z M98.0625 225.875 C93.4642074 232.84211 91.9292481 238.73141591 93 247 C95.29318153 254.28639938 100.24515954 259.62337654 106.98828125 263.20703125 C113.32217252 265.7036913 119.60755365 265.53776164 125.8984375 263.0703125 C132.52080131 259.69758446 136.49735275 254.963888 139 248 C140.77254119 241.03644534 139.61488191 234.9990664 136.25 228.75 C131.52851398 222.97929487 126.21010686 218.79952736 118.68359375 217.64453125 C110.77345283 217.18651057 103.42648982 219.90073589 98.0625 225.875 Z " fill="#000000" transform="translate(312,113)"/>
<path d="M0 0 C1.53524354 -0.00299685 3.07048633 -0.00640058 4.60572815 -0.01017761 C8.75476729 -0.01896943 12.90378577 -0.02135372 17.05283332 -0.0219934 C19.65190642 -0.02270677 22.25097435 -0.02484653 24.85004616 -0.02749062 C33.93714351 -0.03672889 43.02422624 -0.0408275 52.11132812 -0.04003906 C60.54945719 -0.03943904 68.98752217 -0.04997993 77.42563504 -0.06578273 C84.69646651 -0.07890872 91.96727717 -0.08422083 99.23812038 -0.08358365 C103.56891787 -0.0833301 107.89965838 -0.08610153 112.23044395 -0.0967617 C116.30907741 -0.10652801 120.3876004 -0.10646418 124.46623802 -0.09924507 C125.95198226 -0.09820966 127.43773368 -0.10049898 128.92346573 -0.10660553 C153.44442089 -0.20075567 174.13634147 5.01942869 192.07543945 22.45776367 C206.56417966 37.75551983 212.33234276 56.56625697 211.96606445 77.34838867 C211.22049048 95.69758852 202.6145375 113.28342461 189.6965332 126.14526367 C172.83852258 140.92457651 154.26481772 145.78500172 132.43676758 145.6628418 C130.77565401 145.66827931 129.11454527 145.675411 127.45344543 145.68408203 C122.99259389 145.70212498 118.53211751 145.69532769 114.07126045 145.68256569 C109.37159443 145.67233818 104.67195752 145.68185812 99.97229004 145.68811035 C92.08457761 145.69535867 84.19701568 145.68587345 76.30932617 145.66674805 C67.22968084 145.64498477 58.15039498 145.65203814 49.07075834 145.67405367 C41.23242762 145.6922884 33.39420421 145.69472678 25.55585909 145.68429899 C20.8930705 145.67810818 16.23045007 145.67710528 11.56767273 145.69044495 C7.18101621 145.70212128 2.79481673 145.69376626 -1.59179115 145.67086792 C-3.18795837 145.665643 -4.78416501 145.66698578 -6.38031578 145.67591858 C-27.91394196 145.7851882 -47.07666414 139.82894636 -62.85327148 124.62768555 C-76.61042442 110.5648181 -83.59726917 92.61700685 -83.8034668 73.14526367 C-83.58408896 54.11196998 -77.10468488 37.3518051 -64.3034668 23.14526367 C-63.75045898 22.51104492 -63.19745117 21.87682617 -62.62768555 21.22338867 C-46.15099541 3.44901172 -22.90767349 -0.00896278 0 0 Z M63.6965332 39.14526367 C52.73602764 50.51725579 38.16865369 68.37541363 38.4152832 84.93041992 C39.2562822 91.55328702 42.95054546 97.60562322 47.6965332 102.14526367 C54.90963939 107.2511703 62.00209637 108.35714809 70.6965332 107.14526367 C73.69447769 106.19575392 76.11004873 104.91691294 78.6965332 103.14526367 C79.5834082 102.58838867 80.4702832 102.03151367 81.3840332 101.45776367 C86.59003308 96.25176379 89.51226718 90.115851 89.88793945 82.73901367 C88.74458127 67.24534357 75.61759222 51.38715732 65.6965332 40.14526367 C65.0365332 39.81526367 64.3765332 39.48526367 63.6965332 39.14526367 Z " fill="#000000" transform="translate(91.303466796875,149.854736328125)"/>
</svg>
