<?xml version="1.0" encoding="UTF-8"?>
<svg version="1.1" xmlns="http://www.w3.org/2000/svg" width="512" height="512">
<path d="M0 0 C1.17280014 0.00539291 1.17280014 0.00539291 2.36929321 0.01089478 C3.18873917 0.01074875 4.00818512 0.01060272 4.85246277 0.01045227 C7.57416385 0.01115164 10.29579737 0.01894515 13.01748657 0.02676392 C14.89935773 0.02862801 16.78122938 0.03005195 18.6631012 0.03105164 C23.62631561 0.0348775 28.58950096 0.04470836 33.55270386 0.05575562 C38.61322639 0.06596827 43.67375359 0.07054894 48.73428345 0.07559204 C58.67114521 0.08633057 68.60798535 0.10340781 78.54483032 0.12442017 C80.27405637 5.16758921 81.90407355 10.17804891 83.15029907 15.36660767 C83.54185181 16.9946936 83.54185181 16.9946936 83.9413147 18.65567017 C84.33286743 20.31082642 84.33286743 20.31082642 84.73233032 21.99942017 C85.1412854 23.6893811 85.1412854 23.6893811 85.5585022 25.41348267 C87.54483032 33.73714338 87.54483032 33.73714338 87.54483032 37.12442017 C88.60830688 37.21078735 89.67178345 37.29715454 90.76748657 37.38613892 C96.72666286 38.14263159 102.30111275 40.04345285 107.98233032 41.93692017 C109.15432983 42.32710327 110.32632935 42.71728638 111.53384399 43.11929321 C124.82864102 47.69876065 139.53786485 53.10114875 150.93154907 61.54238892 C153.36212444 63.36002378 153.36212444 63.36002378 155.81729126 62.9503479 C159.19570843 61.92732738 161.80062693 60.35639203 164.79873657 58.49160767 C165.99454177 57.76087973 167.19051021 57.03041887 168.3866272 56.30020142 C170.25456595 55.14785835 172.11988893 53.99158637 173.98208618 52.82998657 C175.78957529 51.706393 177.60587149 50.59830937 179.42373657 49.49160767 C181.04130859 48.48783081 181.04130859 48.48783081 182.69155884 47.46377563 C185.54483032 46.12442017 185.54483032 46.12442017 187.36676025 46.21154785 C190.61255812 47.57192604 192.80019535 49.93759858 195.2472229 52.39102173 C196.08443878 53.21312386 196.08443878 53.21312386 196.93856812 54.05183411 C198.78019682 55.86497643 200.61031099 57.68922063 202.43936157 59.51504517 C203.71377131 60.77981665 204.98840721 62.04436029 206.26325989 63.3086853 C208.93239871 65.9598627 211.59526341 68.61716807 214.25454712 71.27822876 C217.6672113 74.69119832 221.10006804 78.08304262 224.53857899 81.469944 C227.17644832 84.07450616 229.8006183 86.69254056 232.42108727 89.31459808 C233.68139945 90.57136405 234.94659309 91.82325406 236.21665382 93.07016754 C237.98878143 94.81298822 239.74098306 96.57368849 241.4894104 98.34024048 C242.01971359 98.85368515 242.55001678 99.36712982 243.09638977 99.89613342 C244.52806091 101.36593628 244.52806091 101.36593628 246.54483032 104.12442017 C246.40630919 108.5389115 244.28871936 111.47409862 241.91201782 115.12442017 C241.18116406 116.27000796 240.45070713 117.41584901 239.72061157 118.56192017 C238.56942374 120.34948503 237.41371022 122.13378303 236.25039673 123.91348267 C235.12455984 125.64246346 234.01744369 127.38234267 232.91201782 129.12442017 C232.24283325 130.15567017 231.57364868 131.18692017 230.88418579 132.24942017 C229.32792527 135.59001875 229.32146254 136.70403238 230.54483032 140.12442017 C231.3702982 141.89388989 232.26351929 143.63259726 233.20498657 145.34317017 C234.01915039 146.8496814 234.01915039 146.8496814 234.84976196 148.3866272 C235.42975952 149.45509888 236.00975708 150.52357056 236.60733032 151.62442017 C255.54483032 187.30046083 255.54483032 187.30046083 255.54483032 205.12442017 C256.2638855 205.23326538 256.98294067 205.3421106 257.7237854 205.45425415 C265.33795044 206.65810625 272.76467431 208.28412623 280.23233032 210.18692017 C281.31449829 210.4556897 282.39666626 210.72445923 283.5116272 211.00137329 C291.41335711 212.99294695 291.41335711 212.99294695 292.54483032 214.12442017 C292.63992591 216.74130458 292.67039032 219.33170917 292.65835571 221.94888306 C292.65850174 222.76832901 292.65864777 223.58777496 292.65879822 224.43205261 C292.65809885 227.15375369 292.65030534 229.87538722 292.64248657 232.59707642 C292.64062248 234.47894758 292.63919854 236.36081922 292.63819885 238.24269104 C292.63437299 243.20590546 292.62454213 248.1690908 292.61349487 253.1322937 C292.60328222 258.19281623 292.59870155 263.25334344 292.59365845 268.31387329 C292.58291992 278.25073505 292.56584268 288.1875752 292.54483032 298.12442017 C287.50166128 299.85364621 282.49120158 301.4836634 277.30264282 302.72988892 C275.67455688 303.12144165 275.67455688 303.12144165 274.01358032 303.52090454 C272.35842407 303.91245728 272.35842407 303.91245728 270.66983032 304.31192017 C268.97986938 304.72087524 268.97986938 304.72087524 267.25576782 305.13809204 C258.93210711 307.12442017 258.93210711 307.12442017 255.54483032 307.12442017 C255.42236938 308.29488892 255.29990845 309.46535767 255.17373657 310.67129517 C252.79109063 329.55013847 243.18732071 348.77359269 234.13809204 365.23452759 C233.68579224 366.06315308 233.23349243 366.89177856 232.76748657 367.74551392 C232.36280151 368.47182007 231.95811646 369.19812622 231.54116821 369.94644165 C230.37308905 372.49984381 229.68713818 374.30027742 229.54483032 377.12442017 C230.66421945 379.47696811 231.77662926 381.44585267 233.20108032 383.59707642 C233.7727594 384.50446815 233.7727594 384.50446815 234.35598755 385.43019104 C235.57181855 387.35828984 236.806083 389.27347648 238.04483032 391.18692017 C239.28275147 393.10437589 240.51582248 395.02408768 241.7336731 396.95436096 C242.49068141 398.15401431 243.25930975 399.34643067 244.04055786 400.53044128 C246.5703892 404.53614349 246.5703892 404.53614349 246.46542358 406.9520874 C245.09342092 410.18961527 242.73018037 412.38125289 240.27822876 414.82681274 C239.73016068 415.38495667 239.18209259 415.94310059 238.61741638 416.51815796 C236.80427405 418.35978667 234.98002986 420.18990084 233.15420532 422.01895142 C231.88943384 423.29336115 230.6248902 424.56799705 229.36056519 425.84284973 C226.70938779 428.51198856 224.05208242 431.17485325 221.39102173 433.83413696 C217.97805217 437.24680115 214.58620786 440.67965788 211.19930649 444.11816883 C208.59474433 446.75603816 205.97670993 449.38020814 203.3546524 452.00067711 C202.09788644 453.26098929 200.84599643 454.52618293 199.59908295 455.79624367 C197.85626227 457.56837128 196.095562 459.3205729 194.32901001 461.06900024 C193.558843 461.86445503 193.558843 461.86445503 192.77311707 462.67597961 C191.30331421 464.10765076 191.30331421 464.10765076 188.54483032 466.12442017 C184.13033899 465.98589904 181.19515186 463.86830921 177.54483032 461.49160767 C176.39924253 460.7607539 175.25340148 460.03029698 174.10733032 459.30020142 C172.31976546 458.14901358 170.53546746 456.99330007 168.75576782 455.82998657 C167.02678703 454.70414969 165.28690782 453.59703354 163.54483032 452.49160767 C162.51358032 451.8224231 161.48233032 451.15323853 160.41983032 450.46377563 C157.08281255 448.90918329 155.96119213 448.90116867 152.54483032 450.12442017 C150.82169977 450.93787427 149.12978533 451.81933878 147.46670532 452.74942017 C146.48266724 453.28712036 145.49862915 453.82482056 144.48477173 454.3788147 C142.90575073 455.2428894 142.90575073 455.2428894 141.29483032 456.12442017 C125.97870843 464.30638847 105.36820236 475.12442017 87.54483032 475.12442017 C87.43598511 475.84347534 87.32713989 476.56253052 87.21499634 477.30337524 C86.01114423 484.91754028 84.38512426 492.34426415 82.48233032 499.81192017 C82.21356079 500.89408813 81.94479126 501.9762561 81.6678772 503.09121704 C79.67630354 510.99294695 79.67630354 510.99294695 78.54483032 512.12442017 C75.92794591 512.21951576 73.33754132 512.24998017 70.72036743 512.23794556 C69.90092148 512.23809158 69.08147552 512.23823761 68.23719788 512.23838806 C65.51549679 512.23768869 62.79386327 512.22989518 60.07217407 512.22207642 C58.19030291 512.22021232 56.30843127 512.21878838 54.42655945 512.2177887 C49.46334503 512.21396283 44.50015968 512.20413197 39.53695679 512.19308472 C34.47643426 512.18287206 29.41590705 512.17829139 24.3553772 512.17324829 C14.41851544 512.16250976 4.48167529 512.14543253 -5.45516968 512.12442017 C-7.18439572 507.08125112 -8.81441291 502.07079143 -10.06063843 496.88223267 C-10.32167358 495.79684204 -10.58270874 494.71145142 -10.85165405 493.59317017 C-11.11268921 492.48973267 -11.37372437 491.38629517 -11.64266968 490.24942017 C-12.05162476 488.55945923 -12.05162476 488.55945923 -12.46884155 486.83535767 C-14.45516968 478.51169695 -14.45516968 478.51169695 -14.45516968 475.12442017 C-16.05038452 474.99486938 -16.05038452 474.99486938 -17.67782593 474.86270142 C-23.63700221 474.10620875 -29.21145211 472.20538748 -34.89266968 470.31192017 C-36.06466919 469.92173706 -37.2366687 469.53155396 -38.44418335 469.12954712 C-51.73898038 464.55007968 -66.44820421 459.14769158 -77.84188843 450.70645142 C-80.2724638 448.88881655 -80.2724638 448.88881655 -82.72763062 449.29849243 C-86.10604778 450.32151295 -88.71096629 451.8924483 -91.70907593 453.75723267 C-92.90488113 454.4879606 -94.10084956 455.21842146 -95.29696655 455.94863892 C-97.16490531 457.10098199 -99.03022828 458.25725396 -100.89242554 459.41885376 C-102.69991465 460.54244733 -104.51621084 461.65053097 -106.33407593 462.75723267 C-107.95164795 463.76100952 -107.95164795 463.76100952 -109.60189819 464.7850647 C-112.45516968 466.12442017 -112.45516968 466.12442017 -114.27709961 466.03729248 C-117.52289747 464.6769143 -119.7105347 462.31124175 -122.15756226 459.8578186 C-122.71570618 459.30975052 -123.2738501 458.76168243 -123.84890747 458.19700623 C-125.69053618 456.3838639 -127.52065035 454.5596197 -129.34970093 452.73379517 C-130.62411067 451.46902368 -131.89874656 450.20448004 -133.17359924 448.94015503 C-135.84273807 446.28897764 -138.50560276 443.63167226 -141.16488647 440.97061157 C-144.57755066 437.55764201 -148.01040739 434.16579771 -151.44891834 430.77889633 C-154.08678768 428.17433417 -156.71095765 425.55629977 -159.33142662 422.93424225 C-160.59173881 421.67747628 -161.85693244 420.42558627 -163.12699318 419.17867279 C-164.89912079 417.43585212 -166.65132242 415.67515184 -168.39974976 413.90859985 C-168.93005295 413.39515518 -169.46035614 412.88171051 -170.00672913 412.35270691 C-171.43840027 410.88290405 -171.43840027 410.88290405 -173.45516968 408.12442017 C-173.31664855 403.70992883 -171.19905872 400.77474171 -168.82235718 397.12442017 C-168.09150342 395.97883237 -167.36104649 394.83299132 -166.63095093 393.68692017 C-165.4797631 391.89935531 -164.32404958 390.11505731 -163.16073608 388.33535767 C-162.0348992 386.60637688 -160.92778305 384.86649766 -159.82235718 383.12442017 C-159.15317261 382.09317017 -158.48398804 381.06192017 -157.79452515 379.99942017 C-156.2399328 376.66240239 -156.23191818 375.54078198 -157.45516968 372.12442017 C-158.26862379 370.40128961 -159.1500883 368.70937518 -160.08016968 367.04629517 C-160.61786987 366.06225708 -161.15557007 365.07821899 -161.70956421 364.06436157 C-162.57363892 362.48534058 -162.57363892 362.48534058 -163.45516968 360.87442017 C-171.63713799 345.55829828 -182.45516968 324.9477922 -182.45516968 307.12442017 C-183.09696167 307.01557495 -183.73875366 306.90672974 -184.3999939 306.79458618 C-191.86450696 305.48786327 -199.21566094 303.84239845 -206.58016968 302.06192017 C-207.71454468 301.79315063 -208.84891968 301.5243811 -210.01766968 301.24746704 C-211.0927478 300.98901001 -212.16782593 300.73055298 -213.27548218 300.46426392 C-214.73365356 300.1141626 -214.73365356 300.1141626 -216.22128296 299.75698853 C-218.45516968 299.12442017 -218.45516968 299.12442017 -219.45516968 298.12442017 C-219.55026527 295.50753576 -219.58072968 292.91713116 -219.56869507 290.29995728 C-219.56884109 289.48051132 -219.56898712 288.66106537 -219.56913757 287.81678772 C-219.5684382 285.09508664 -219.56064469 282.37345311 -219.55282593 279.65176392 C-219.55096183 277.76989276 -219.54953789 275.88802111 -219.54853821 274.00614929 C-219.54471235 269.04293488 -219.53488148 264.07974953 -219.52383423 259.11654663 C-219.51362157 254.0560241 -219.5090409 248.9954969 -219.5039978 243.93496704 C-219.49325927 233.99810528 -219.47618204 224.06126514 -219.45516968 214.12442017 C-214.41200063 212.39519412 -209.40154094 210.76517694 -204.21298218 209.51895142 C-203.12759155 209.25791626 -202.04220093 208.9968811 -200.92391968 208.72793579 C-199.82048218 208.46690063 -198.71704468 208.20586548 -197.58016968 207.93692017 C-195.89020874 207.52796509 -195.89020874 207.52796509 -194.16610718 207.11074829 C-185.84244646 205.12442017 -185.84244646 205.12442017 -182.45516968 205.12442017 C-182.27147827 203.36871704 -182.27147827 203.36871704 -182.08407593 201.57754517 C-179.70142999 182.69870186 -170.09766006 163.47524764 -161.0484314 147.01431274 C-160.59613159 146.18568726 -160.14383179 145.35706177 -159.67782593 144.50332642 C-159.27314087 143.77702026 -158.86845581 143.05071411 -158.45150757 142.30239868 C-157.28342841 139.74899653 -156.59747754 137.94856291 -156.45516968 135.12442017 C-157.57455881 132.77187222 -158.68696862 130.80298766 -160.11141968 128.65176392 C-160.49253906 128.04683609 -160.87365845 127.44190826 -161.2663269 126.81864929 C-162.48215791 124.89055049 -163.71642235 122.97536385 -164.95516968 121.06192017 C-166.19309082 119.14446444 -167.42616184 117.22475265 -168.64401245 115.29447937 C-169.40102077 114.09482602 -170.1696491 112.90240966 -170.95089722 111.71839905 C-173.48072856 107.71269684 -173.48072856 107.71269684 -173.37576294 105.29675293 C-172.00376028 102.05922507 -169.64051973 99.86758744 -167.18856812 97.42202759 C-166.64050003 96.86388367 -166.09243195 96.30573975 -165.52775574 95.73068237 C-163.71461341 93.88905366 -161.89036921 92.05893949 -160.06454468 90.22988892 C-158.79977319 88.95547918 -157.53522955 87.68084328 -156.27090454 86.4059906 C-153.61972715 83.73685178 -150.96242177 81.07398708 -148.30136108 78.41470337 C-144.88839153 75.00203919 -141.49654722 71.56918245 -138.10964584 68.1306715 C-135.50508368 65.49280217 -132.88704928 62.86863219 -130.26499176 60.24816322 C-129.00822579 58.98785104 -127.75633578 57.7226574 -126.5094223 56.45259666 C-124.76660163 54.68046906 -123.00590135 52.92826743 -121.23934937 51.17984009 C-120.72590469 50.6495369 -120.21246002 50.1192337 -119.68345642 49.57286072 C-118.21365356 48.14118958 -118.21365356 48.14118958 -115.45516968 46.12442017 C-111.04067834 46.2629413 -108.10549122 48.38053112 -104.45516968 50.75723267 C-103.30958188 51.48808643 -102.16374083 52.21854336 -101.01766968 52.94863892 C-99.23010482 54.09982675 -97.44580682 55.25554027 -95.66610718 56.41885376 C-93.93712639 57.54469065 -92.19724717 58.6518068 -90.45516968 59.75723267 C-89.42391968 60.42641724 -88.39266968 61.09560181 -87.33016968 61.7850647 C-83.98957109 63.34132521 -82.87555746 63.34778795 -79.45516968 62.12442017 C-77.68569995 61.29895229 -75.94699259 60.4057312 -74.23641968 59.46426392 C-73.23207886 58.92148804 -72.22773804 58.37871216 -71.19296265 57.81948853 C-70.12449097 57.23949097 -69.05601929 56.65949341 -67.95516968 56.06192017 C-32.27912901 37.12442017 -32.27912901 37.12442017 -14.45516968 37.12442017 C-14.34632446 36.40536499 -14.23747925 35.68630981 -14.12533569 34.94546509 C-12.92148359 27.33130005 -11.29546362 19.90457618 -9.39266968 12.43692017 C-8.98951538 10.81366821 -8.98951538 10.81366821 -8.57821655 9.15762329 C-6.27317328 0.01217728 -6.27317328 0.01217728 0 0 Z M-78.45516968 138.12442017 C-79.12677124 138.72383423 -79.7983728 139.32324829 -80.49032593 139.94082642 C-86.5407933 145.64800486 -91.50264877 152.46952449 -96.45516968 159.12442017 C-96.88233276 159.69660278 -97.30949585 160.2687854 -97.74960327 160.85830688 C-109.82158626 177.29263336 -118.46607808 196.38690915 -123.45516968 216.12442017 C-123.66254761 216.90913696 -123.86992554 217.69385376 -124.08358765 218.50234985 C-130.2781548 242.83989829 -130.10885765 271.91891805 -123.45516968 296.12442017 C-123.19735718 297.07107544 -122.93954468 298.01773071 -122.67391968 298.99307251 C-114.8243504 326.78000266 -100.58446637 349.83899401 -81.45516968 371.12442017 C-80.85317749 371.79988892 -80.2511853 372.47535767 -79.63095093 373.17129517 C-73.92010585 379.21299525 -67.10718233 384.17404479 -60.45516968 389.12442017 C-59.88298706 389.55158325 -59.31080444 389.97874634 -58.72128296 390.41885376 C-24.98196498 415.20237461 18.39541121 425.19138323 59.65420532 419.44473267 C95.15931646 413.97126937 125.09684433 397.89332981 151.54483032 374.12442017 C152.22029907 373.52242798 152.89576782 372.92043579 153.59170532 372.30020142 C159.6334054 366.58935634 164.59445495 359.77643281 169.54483032 353.12442017 C169.97199341 352.55223755 170.39915649 351.98005493 170.83926392 351.39053345 C182.91124691 334.95620697 191.55573873 315.86193119 196.54483032 296.12442017 C196.75220825 295.33970337 196.95958618 294.55498657 197.17324829 293.74649048 C203.36781545 269.40894204 203.1985183 240.32992228 196.54483032 216.12442017 C196.28701782 215.17776489 196.02920532 214.23110962 195.76358032 213.25576782 C187.91401104 185.46883767 173.67412702 162.40984632 154.54483032 141.12442017 C153.94283813 140.44895142 153.34084595 139.77348267 152.72061157 139.07754517 C147.0097665 133.03584509 140.19684297 128.07479554 133.54483032 123.12442017 C132.97264771 122.69725708 132.40046509 122.27009399 131.8109436 121.82998657 C115.29012589 109.69447066 96.29210605 101.38031325 76.54483032 96.12442017 C75.41947876 95.80988892 74.2941272 95.49535767 73.13467407 95.17129517 C18.18411407 81.55050022 -37.56229877 101.14162456 -78.45516968 138.12442017 Z " fill="#000000" transform="translate(219.45516967773438,-0.124420166015625)"/>
<path d="M0 0 C0.33 0 0.66 0 1 0 C1 29.7 1 59.4 1 90 C30.04 90 59.08 90 89 90 C87.60697163 93.48257093 86.63543208 95.79056313 84.62109375 98.74609375 C84.12569092 99.48013428 83.63028809 100.2141748 83.11987305 100.97045898 C82.28709839 102.19164429 82.28709839 102.19164429 81.4375 103.4375 C80.16013558 105.33244235 78.88421344 107.22835736 77.609375 109.125 C76.88556641 110.20136719 76.16175781 111.27773437 75.41601562 112.38671875 C70.62391854 119.53755825 65.91403331 126.74325651 61.1875 133.9375 C60.10478944 135.58458895 59.0220252 137.23164262 57.93920898 138.87866211 C55.72661738 142.24428835 53.51433188 145.61011551 51.30224609 148.97607422 C46.55453452 156.19977573 41.80290003 163.4208959 37.05142212 170.64212036 C34.4507742 174.59463251 31.85040153 178.54732574 29.25 182.5 C28.20833464 184.08333419 27.16666797 185.66666753 26.125 187.25 C25.3515625 188.425625 25.3515625 188.425625 24.5625 189.625 C19.875 196.75000001 19.875 196.75000001 18.31285095 199.12445068 C17.26999502 200.70960229 16.22715855 202.2947667 15.18434143 203.87994385 C12.59852906 207.8105622 10.01239141 211.74096572 7.42553711 215.67089844 C2.51857755 223.12629221 -2.3847503 230.58401415 -7.27755737 238.04870605 C-9.60245625 241.59527134 -11.92908698 245.14069882 -14.25585938 248.68603516 C-15.37017385 250.38500883 -16.48362882 252.08454657 -17.59619141 253.78466797 C-19.13360546 256.13389629 -20.67390381 258.48120849 -22.21484375 260.828125 C-22.90047646 261.87833832 -22.90047646 261.87833832 -23.59996033 262.94976807 C-25.27263349 265.4925436 -26.84154261 267.84154261 -29 270 C-29 240.3 -29 210.6 -29 180 C-58.04 180 -87.08 180 -117 180 C-115.51691643 176.29229108 -114.35187197 173.79093871 -112.18359375 170.59765625 C-111.59779541 169.72802246 -111.01199707 168.85838867 -110.40844727 167.96240234 C-109.43282837 166.52695068 -109.43282837 166.52695068 -108.4375 165.0625 C-106.97532785 162.89013962 -105.51429357 160.71705075 -104.0546875 158.54296875 C-103.65868851 157.95392761 -103.26268951 157.36488647 -102.85469055 156.75799561 C-97.53424671 148.83427789 -92.30274008 140.85186938 -87.0625 132.875 C-85.98759593 131.23963375 -84.9126443 129.60429876 -83.83764648 127.96899414 C-81.64813418 124.6380573 -79.4589709 121.30689142 -77.27001953 117.97558594 C-72.53393809 110.76846725 -67.79330428 103.56434409 -63.05288696 96.3600769 C-60.45431336 92.41076592 -57.85609053 88.46122419 -55.2578125 84.51171875 C-50.53800004 77.33751341 -45.81774845 70.1635971 -41.09735107 62.98977661 C-36.95659521 56.69673319 -32.81669362 50.40312814 -28.67706299 44.10934448 C-25.4569583 39.21390042 -22.23534612 34.31945167 -19.0128479 29.42558289 C-16.85648305 26.15039358 -14.70100594 22.87462067 -12.54571533 19.59872437 C-11.52197766 18.04314841 -10.49785355 16.48782669 -9.47332764 14.93276978 C-8.06454794 12.79438015 -6.65711424 10.65511076 -5.25 8.515625 C-4.62226181 7.56386635 -4.62226181 7.56386635 -3.98184204 6.59288025 C-1.85971038 3.37356019 -1.85971038 3.37356019 0 0 Z " fill="#000000" transform="translate(270,121)"/>
</svg>
