<?xml version="1.0" standalone="no"?>
<!DOCTYPE svg PUBLIC "-//W3C//DTD SVG 20010904//EN"
 "http://www.w3.org/TR/2001/REC-SVG-20010904/DTD/svg10.dtd">
<svg version="1.0" xmlns="http://www.w3.org/2000/svg"
 width="512.000000pt" height="512.000000pt" viewBox="0 0 512.000000 512.000000"
 preserveAspectRatio="xMidYMid meet">

<g transform="translate(0.000000,512.000000) scale(0.100000,-0.100000)"
fill="#000000" stroke="none">
<path d="M2255 4847 l-300 -273 -5 -124 -5 -124 -870 -415 -870 -416 163 -3
162 -2 0 -96 c0 -88 -2 -98 -27 -131 -20 -26 -28 -50 -31 -94 -4 -52 -1 -65
22 -100 30 -44 91 -78 141 -79 85 0 165 81 165 168 0 44 -26 108 -54 131 -13
11 -16 34 -16 107 l0 94 610 0 611 0 -3 -102 -3 -102 -869 -416 -870 -415 162
-3 162 -2 0 -96 c0 -88 -2 -98 -27 -131 -39 -51 -45 -143 -11 -193 27 -40 98
-80 143 -80 45 1 109 34 135 71 16 22 25 51 28 88 4 51 1 61 -32 110 -35 51
-36 56 -36 142 l0 89 610 0 610 0 0 -114 0 -114 -423 -928 -424 -929 -69 -5
-69 -5 -3 -177 -2 -178 380 0 380 0 -2 177 -3 178 -50 3 c-47 3 -19 15 423
171 l473 168 469 -166 c443 -157 466 -166 422 -171 l-47 -5 -3 -177 -2 -178
380 0 380 0 -2 178 -3 177 -69 5 -69 5 -424 929 -423 928 0 114 0 114 610 0
610 0 0 -89 c0 -86 -1 -91 -36 -142 -33 -49 -36 -59 -32 -110 3 -37 12 -66 28
-88 26 -37 90 -70 135 -71 45 0 116 40 143 80 34 50 28 142 -11 193 -25 33
-27 43 -27 131 l0 96 162 2 163 3 -545 260 c-299 143 -691 330 -870 416 l-325
155 -3 102 -3 102 611 0 610 0 0 -94 c0 -73 -3 -96 -16 -107 -57 -47 -70 -165
-24 -229 26 -36 90 -70 135 -70 45 0 109 34 136 71 19 28 24 46 24 100 0 56
-4 71 -28 102 -25 33 -27 42 -27 131 l0 96 162 0 c89 0 159 3 155 6 -3 4 -394
192 -869 419 l-863 412 -5 124 -5 123 -300 273 c-165 149 -302 272 -305 272
-3 0 -140 -123 -305 -272z m499 -175 c102 -84 192 -160 201 -168 10 -10 15
-35 15 -75 l0 -59 -410 0 -410 0 1 63 0 62 202 167 c111 92 205 167 209 165 4
-1 90 -71 192 -155z m-47 -649 l-147 -148 -147 148 -148 147 295 0 295 0 -148
-147z m-760 -330 c-2 -2 -197 -2 -432 -1 l-428 3 429 205 429 206 3 -205 c1
-112 1 -206 -1 -208z m1793 143 l305 -146 -437 0 -438 0 0 209 0 210 133 -64
c72 -35 269 -129 437 -209z m-1447 26 l127 -127 -135 -135 -135 -135 0 263 c0
144 3 262 8 262 4 0 65 -57 135 -128z m677 -134 l0 -263 -135 135 -135 135
127 127 c70 71 131 128 135 128 5 0 8 -118 8 -262z m-275 -268 l130 -130 -265
0 -265 0 130 130 c71 72 132 130 135 130 3 0 64 -58 135 -130z m-3 -462 l-132
-133 -132 133 -133 132 265 0 265 0 -133 -132z m1337 -343 c2 -3 -190 -5 -427
-5 l-432 0 0 209 0 209 427 -204 c235 -113 429 -207 432 -209z m-2079 200 l0
-205 -432 0 c-237 0 -429 2 -427 4 7 7 843 406 852 406 4 0 7 -92 7 -205z
m343 -3 l127 -127 -135 -135 -135 -135 0 263 c0 144 3 262 8 262 4 0 65 -57
135 -128z m677 -134 l0 -263 -135 135 -135 135 127 127 c70 71 131 128 135
128 5 0 8 -118 8 -262z m-276 -273 l128 -135 -262 0 -262 0 128 135 c70 74
130 135 134 135 3 0 64 -61 134 -135z m-41 -390 c-46 -30 -87 -55 -93 -55 -12
0 -160 98 -160 105 0 3 75 5 167 5 l168 0 -82 -55z m-411 -87 c77 -50 135 -95
131 -99 -24 -23 -538 -407 -541 -404 -5 4 261 594 268 595 2 0 66 -41 142 -92z
m916 -204 c74 -162 132 -297 130 -299 -5 -5 -537 398 -538 409 -1 8 258 186
270 186 3 0 65 -133 138 -296z m-221 -285 c197 -144 368 -270 380 -279 22 -17
13 -21 -360 -149 -210 -72 -388 -131 -396 -131 -8 0 -186 59 -397 132 l-383
131 37 28 c596 437 739 539 749 535 6 -3 173 -123 370 -267z m-962 -559 c171
-56 313 -105 317 -109 5 -4 -632 -246 -920 -349 -7 -3 51 124 130 282 79 157
147 285 153 283 5 -2 150 -50 320 -107z m1643 -176 c79 -158 137 -284 130
-282 -648 239 -925 344 -921 348 4 4 628 217 643 219 3 1 70 -128 148 -285z"/>
</g>
</svg>
