<?xml version="1.0" standalone="no"?>
<!DOCTYPE svg PUBLIC "-//W3C//DTD SVG 20010904//EN"
 "http://www.w3.org/TR/2001/REC-SVG-20010904/DTD/svg10.dtd">
<svg version="1.0" xmlns="http://www.w3.org/2000/svg"
 width="512.000000pt" height="512.000000pt" viewBox="0 0 512.000000 512.000000"
 preserveAspectRatio="xMidYMid meet">

<g transform="translate(0.000000,512.000000) scale(0.100000,-0.100000)"
fill="#000000" stroke="none">
<path d="M3094 4890 c-11 -4 -33 -22 -47 -40 -64 -76 -7 -190 95 -190 31 0 9
-24 -392 -425 -234 -234 -428 -425 -432 -425 -4 0 -155 133 -335 296 -180 163
-344 303 -363 311 -25 11 -45 13 -69 7 -25 -7 -190 -150 -626 -544 -326 -294
-600 -547 -609 -562 -33 -53 -11 -134 44 -163 38 -20 90 -19 119 1 13 10 264
235 558 500 294 266 537 484 541 484 4 0 160 -137 346 -305 353 -317 367 -327
433 -310 19 4 186 164 506 483 362 362 477 471 477 454 0 -93 97 -150 180
-107 54 28 60 54 60 262 0 207 -4 223 -59 260 -32 22 -42 23 -220 22 -102 0
-195 -4 -207 -9z"/>
<path d="M2917 3682 c-15 -17 -17 -79 -17 -680 l0 -662 53 36 c119 82 317 161
478 190 l89 17 0 542 c0 512 -1 543 -18 558 -16 15 -52 17 -294 17 -254 0
-276 -1 -291 -18z"/>
<path d="M1224 3339 c-18 -20 -19 -53 -22 -980 l-2 -959 -110 0 -110 0 0 583
c0 553 -1 585 -18 600 -16 15 -52 17 -293 17 -155 0 -281 -4 -289 -10 -13 -8
-16 -89 -20 -597 l-5 -588 -106 -5 c-71 -3 -112 -10 -123 -19 -25 -21 -46 -66
-46 -98 0 -35 31 -87 62 -105 19 -10 236 -14 1119 -16 l1096 -2 6 157 c6 166
19 245 63 378 36 109 122 274 189 363 l55 73 0 414 0 414 -22 15 c-19 14 -64
16 -288 16 -254 0 -267 -1 -288 -20 l-22 -21 0 -774 0 -775 -110 0 -110 0 0
954 c0 949 0 953 -21 980 l-20 26 -273 0 c-265 0 -273 -1 -292 -21z"/>
<path d="M3936 2644 c-14 -14 -16 -77 -16 -544 l0 -529 22 -15 c20 -14 88 -16
540 -16 619 0 565 -13 554 136 -33 479 -392 878 -869 969 -106 20 -211 20
-231 -1z"/>
<path d="M3525 2339 c-153 -20 -330 -88 -466 -179 -86 -58 -223 -198 -284
-289 -60 -92 -119 -227 -148 -340 -18 -72 -21 -113 -21 -251 1 -146 4 -176 27
-264 103 -384 400 -671 797 -768 109 -28 337 -30 448 -5 108 25 241 78 333
133 94 56 230 180 301 274 64 85 141 242 174 355 32 113 45 303 22 323 -11 9
-135 12 -499 14 l-484 3 -5 488 c-5 469 -6 489 -24 503 -22 15 -65 16 -171 3z"/>
</g>
</svg>
