<?xml version="1.0" standalone="no"?>
<!DOCTYPE svg PUBLIC "-//W3C//DTD SVG 20010904//EN"
 "http://www.w3.org/TR/2001/REC-SVG-20010904/DTD/svg10.dtd">
<svg version="1.0" xmlns="http://www.w3.org/2000/svg"
 width="512.000000pt" height="512.000000pt" viewBox="0 0 512.000000 512.000000"
 preserveAspectRatio="xMidYMid meet">

<g transform="translate(0.000000,512.000000) scale(0.100000,-0.100000)"
fill="#000000" stroke="none">
<path d="M2068 4980 c-47 -14 -95 -49 -138 -100 l-42 -50 -261 -2 -262 -3 0
-180 0 -180 773 -3 772 -2 0 185 0 185 -260 0 -259 0 -68 68 c-54 54 -78 71
-115 80 -53 14 -100 14 -140 2z"/>
<path d="M261 4726 c-53 -30 -50 107 -51 -2289 0 -2436 -4 -2271 57 -2296 21
-8 335 -11 1206 -9 l1177 3 -34 48 c-19 27 -43 69 -53 93 l-18 44 -1048 0
-1048 0 -24 25 -25 24 0 2066 0 2066 25 24 24 25 376 0 375 0 0 95 0 95 -457
0 c-361 -1 -463 -4 -482 -14z"/>
<path d="M3070 4645 l0 -95 374 0 c362 0 374 -1 400 -21 l26 -20 2 -1101 3
-1100 55 -17 c30 -10 69 -25 87 -34 18 -9 34 -17 38 -17 3 0 5 549 5 1221 l0
1221 -29 29 -29 29 -466 0 -466 0 0 -95z"/>
<path d="M560 2435 l0 -1955 979 0 978 0 7 52 c12 87 40 150 155 349 61 105
111 195 111 200 0 5 -169 9 -411 9 -243 0 -418 4 -428 10 -31 16 -45 64 -29
96 25 54 27 54 519 54 399 0 458 2 463 15 3 8 112 201 243 428 202 349 247
421 298 472 62 61 137 105 219 127 l46 12 0 1043 0 1043 -327 0 -328 0 -33
-35 c-25 -24 -48 -37 -86 -45 -35 -7 -301 -10 -832 -8 -855 3 -813 0 -862 63
l-20 25 -331 0 -331 0 0 -1955z m1028 1329 c46 -51 38 -62 -186 -286 -173
-173 -212 -208 -236 -208 -22 0 -48 19 -118 87 -94 92 -107 117 -87 155 34 64
82 64 150 1 l50 -47 152 152 c84 83 166 158 182 166 36 19 62 13 93 -20z
m1131 -10 c35 -45 24 -96 -26 -122 -32 -18 -699 -16 -733 1 -38 19 -55 61 -40
98 7 16 20 34 29 39 9 5 171 10 383 10 l367 0 20 -26z m576 -339 c40 -39 32
-96 -16 -120 -24 -13 -126 -15 -667 -15 -622 0 -640 1 -665 20 -13 11 -28 31
-31 45 -7 27 15 80 36 88 7 3 307 6 666 6 l653 1 24 -25z m-1714 -744 c55 -56
50 -64 -173 -288 -159 -159 -210 -204 -236 -209 -31 -6 -38 -2 -129 89 -91 91
-95 98 -89 129 8 41 39 68 79 68 24 0 43 -11 79 -47 l48 -48 158 157 c86 85
166 161 177 167 33 17 55 13 86 -18z m1133 -10 c33 -31 34 -76 4 -108 l-21
-23 -367 0 c-396 0 -400 1 -414 54 -9 37 10 75 46 91 27 12 96 14 380 12 l346
-2 26 -24z m585 -347 c29 -36 27 -75 -5 -105 l-26 -24 -641 -2 c-694 -3 -679
-4 -705 51 -16 31 -2 79 27 96 10 6 279 10 673 10 l657 0 20 -26z m-1735 -725
c35 -16 52 -61 37 -97 -7 -16 -99 -115 -205 -220 -185 -185 -194 -192 -232
-192 -36 0 -46 7 -124 85 -73 73 -84 89 -84 119 0 62 53 96 111 71 15 -7 44
-29 63 -49 l34 -36 166 165 c171 169 183 177 234 154z m1135 -14 c48 -24 56
-81 16 -120 l-24 -25 -360 0 c-198 0 -367 3 -376 6 -24 10 -46 60 -39 89 3 14
18 34 31 45 25 19 42 20 375 20 287 0 354 -3 377 -15z"/>
<path d="M3705 2136 c-65 -21 -118 -52 -156 -93 -21 -21 -219 -354 -442 -741
-320 -554 -408 -716 -417 -759 -32 -153 50 -313 193 -379 l62 -29 829 -3 c913
-3 891 -4 982 59 117 80 177 234 141 365 -15 58 -791 1411 -846 1476 -83 97
-229 141 -346 104z m179 -516 c55 -49 57 -64 43 -365 -14 -299 -20 -322 -81
-352 -73 -35 -160 16 -170 100 -3 23 -10 154 -16 290 -11 274 -11 280 50 331
26 21 42 26 85 26 46 0 60 -5 89 -30z m-23 -963 c70 -47 70 -147 -1 -195 -91
-62 -215 28 -180 132 26 80 112 110 181 63z"/>
</g>
</svg>
