<?xml version="1.0" standalone="no"?>
<!DOCTYPE svg PUBLIC "-//W3C//DTD SVG 20010904//EN"
 "http://www.w3.org/TR/2001/REC-SVG-20010904/DTD/svg10.dtd">
<svg version="1.0" xmlns="http://www.w3.org/2000/svg"
 width="512.000000pt" height="512.000000pt" viewBox="0 0 512.000000 512.000000"
 preserveAspectRatio="xMidYMid meet">

<g transform="translate(0.000000,512.000000) scale(0.100000,-0.100000)"
fill="#000000" stroke="none">
<path d="M1035 4851 c-109 -27 -207 -107 -258 -210 l-32 -66 -3 -896 -3 -897
43 22 c32 16 61 21 113 21 80 -1 119 -17 200 -85 l50 -42 11 83 c6 46 16 96
22 111 18 43 84 110 127 129 114 50 476 50 590 0 43 -19 109 -86 127 -129 6
-15 16 -65 22 -111 l11 -83 50 42 c100 83 188 107 282 76 57 -19 180 -114 268
-207 l60 -64 224 -5 224 -5 20 -27 21 -28 -21 -27 -20 -28 -178 -3 -177 -2 6
-23 c30 -103 11 -185 -66 -280 l-49 -62 83 -11 c46 -6 95 -16 110 -22 43 -18
110 -84 129 -127 15 -33 39 -172 39 -222 0 -7 19 -13 51 -15 43 -2 55 -8 72
-30 l21 -28 -21 -27 c-17 -23 -29 -29 -72 -31 -32 -2 -51 -8 -51 -15 0 -50
-24 -189 -39 -222 -19 -43 -86 -109 -129 -127 -15 -6 -65 -16 -111 -22 l-83
-11 42 -50 c50 -60 76 -108 85 -158 l7 -37 867 2 866 3 60 24 c82 33 173 124
206 206 l24 60 3 1373 2 1372 -369 0 c-235 0 -380 4 -398 11 -56 21 -102 61
-128 112 l-25 51 0 373 0 373 -1437 -1 c-791 -1 -1451 -4 -1468 -8z m3227
-1188 c42 -38 28 -58 -174 -260 -122 -121 -203 -194 -221 -198 -63 -16 -96 2
-204 108 -108 106 -121 131 -86 169 32 36 60 23 160 -74 l93 -92 183 182 c191
189 209 202 249 165z m-1079 -275 l21 -28 -21 -27 -20 -28 -903 -3 c-830 -2
-905 -1 -922 14 -22 21 -23 62 -1 86 15 17 54 18 921 16 l905 -3 20 -27z
m1079 -605 c42 -38 28 -58 -174 -260 -122 -121 -203 -194 -221 -198 -63 -16
-96 2 -204 108 -108 106 -121 131 -86 169 32 36 60 23 160 -74 l93 -92 183
182 c191 189 209 202 249 165z m0 -880 c42 -38 28 -58 -174 -260 -122 -121
-203 -194 -221 -198 -63 -16 -96 2 -204 108 -108 106 -121 131 -86 169 32 36
60 23 160 -74 l93 -92 183 182 c191 189 209 202 249 165z"/>
<path d="M4060 4482 c0 -375 2 -388 57 -411 20 -8 127 -11 366 -9 l337 3 -380
380 -380 380 0 -343z"/>
<path d="M1430 2929 c-115 -15 -146 -53 -160 -199 -17 -170 -17 -170 -55 -186
-19 -8 -39 -14 -44 -14 -5 0 -51 34 -102 76 -116 94 -141 108 -191 101 -54 -7
-106 -45 -223 -162 -117 -117 -155 -169 -162 -223 -7 -50 7 -75 101 -191 42
-51 76 -97 76 -102 0 -5 -6 -25 -14 -44 -16 -38 -16 -38 -186 -55 -109 -11
-136 -21 -172 -71 -50 -68 -50 -450 0 -518 36 -50 63 -60 172 -71 170 -17 170
-17 186 -55 8 -19 14 -39 14 -44 0 -5 -34 -51 -76 -102 -94 -116 -108 -141
-101 -191 7 -54 45 -106 162 -223 117 -117 169 -155 223 -162 50 -7 75 7 191
101 51 42 97 76 102 76 5 0 25 -6 44 -14 38 -16 38 -16 55 -186 11 -109 21
-135 71 -172 66 -49 452 -49 518 0 52 38 60 61 75 198 7 72 16 136 20 142 4 6
24 17 45 23 l39 11 98 -81 c111 -92 154 -110 211 -93 75 23 313 254 349 339
30 70 19 98 -90 232 -42 51 -76 97 -76 102 0 5 6 25 14 44 16 38 16 38 186 55
109 11 136 21 172 71 50 68 50 450 0 518 -36 50 -63 60 -172 71 -170 17 -170
17 -186 55 -8 19 -14 39 -14 44 0 5 34 51 76 102 94 116 108 141 101 191 -7
54 -45 106 -162 223 -117 117 -169 155 -223 162 -50 7 -75 -7 -191 -101 -51
-42 -97 -76 -102 -76 -5 0 -25 6 -44 14 -38 16 -38 16 -55 186 -11 109 -21
135 -71 172 -44 33 -270 48 -429 27z m285 -864 c237 -62 393 -291 358 -529
-28 -194 -168 -351 -358 -401 -251 -65 -513 94 -580 350 -89 343 237 669 580
580z"/>
</g>
</svg>
