<?xml version="1.0" standalone="no"?>
<!DOCTYPE svg PUBLIC "-//W3C//DTD SVG 20010904//EN"
 "http://www.w3.org/TR/2001/REC-SVG-20010904/DTD/svg10.dtd">
<svg version="1.0" xmlns="http://www.w3.org/2000/svg"
 width="512.000000pt" height="512.000000pt" viewBox="0 0 512.000000 512.000000"
 preserveAspectRatio="xMidYMid meet">

<g transform="translate(0.000000,512.000000) scale(0.100000,-0.100000)"
fill="#000000" stroke="none">
<path d="M845 5106 c-41 -18 -83 -69 -90 -109 -3 -18 -4 -1126 -3 -2464 l3
-2432 21 -27 c47 -63 117 -88 187 -65 28 10 194 176 744 747 l708 734 905 0
c581 0 918 4 942 10 21 6 51 27 71 49 44 49 55 103 32 157 -11 29 -455 478
-1688 1712 -986 988 -1685 1680 -1704 1688 -40 17 -89 17 -128 0z"/>
</g>
</svg>
