<?xml version="1.0" standalone="no"?>
<!DOCTYPE svg PUBLIC "-//W3C//DTD SVG 20010904//EN"
 "http://www.w3.org/TR/2001/REC-SVG-20010904/DTD/svg10.dtd">
<svg version="1.0" xmlns="http://www.w3.org/2000/svg"
 width="512.000000pt" height="512.000000pt" viewBox="0 0 512.000000 512.000000"
 preserveAspectRatio="xMidYMid meet">

<g transform="translate(0.000000,512.000000) scale(0.100000,-0.100000)"
fill="#000000" stroke="none">
<path d="M3490 4464 c-36 -7 -103 -32 -150 -55 -115 -56 -228 -169 -284 -281
l-38 -78 -1319 0 c-1168 0 -1324 -2 -1357 -15 -169 -71 -169 -319 0 -390 33
-13 189 -15 1357 -15 l1319 0 38 -77 c56 -113 169 -226 284 -282 110 -54 209
-75 320 -68 85 6 195 34 260 67 113 57 220 170 281 293 l33 66 267 3 267 3 44
30 c138 97 118 306 -34 370 -30 12 -85 15 -291 15 l-253 0 -33 67 c-132 268
-421 410 -711 347z m228 -433 c166 -85 160 -315 -10 -385 -48 -20 -118 -20
-166 -1 -167 71 -169 317 -2 389 50 22 133 20 178 -3z"/>
<path d="M1360 3184 c-189 -41 -345 -160 -431 -328 l-44 -86 -253 0 c-205 0
-260 -3 -290 -15 -169 -71 -169 -319 0 -390 30 -12 85 -15 291 -15 l253 0 30
-61 c86 -182 254 -314 446 -353 150 -31 277 -14 418 55 115 56 228 169 284
281 l38 78 1333 2 1333 3 44 30 c138 97 118 306 -34 370 -33 13 -189 15 -1357
15 l-1319 0 -38 78 c-56 112 -169 225 -284 281 -139 68 -278 86 -420 55z m218
-429 c152 -64 172 -273 34 -369 -57 -40 -149 -48 -208 -18 -165 85 -164 298 1
385 39 21 125 21 173 2z"/>
<path d="M3490 1904 c-36 -7 -103 -32 -150 -55 -115 -56 -228 -169 -284 -281
l-38 -78 -1319 0 c-1168 0 -1324 -2 -1357 -15 -169 -71 -169 -319 0 -390 33
-13 189 -15 1357 -15 l1319 0 38 -77 c56 -113 169 -226 284 -282 110 -54 209
-75 320 -68 85 6 195 34 260 67 113 57 220 170 281 293 l33 66 267 3 267 3 44
30 c138 97 118 306 -34 370 -30 12 -85 15 -291 15 l-253 0 -33 67 c-132 268
-421 410 -711 347z m228 -433 c166 -85 160 -315 -10 -385 -48 -20 -118 -20
-166 -1 -167 71 -169 317 -2 389 50 22 133 20 178 -3z"/>
</g>
</svg>
