<?xml version="1.0" standalone="no"?>
<!DOCTYPE svg PUBLIC "-//W3C//DTD SVG 20010904//EN"
 "http://www.w3.org/TR/2001/REC-SVG-20010904/DTD/svg10.dtd">
<svg version="1.0" xmlns="http://www.w3.org/2000/svg"
 width="512.000000pt" height="512.000000pt" viewBox="0 0 512.000000 512.000000"
 preserveAspectRatio="xMidYMid meet">

<g transform="translate(0.000000,512.000000) scale(0.100000,-0.100000)"
fill="#000000" stroke="none">
<path d="M2502 4947 c-50 -16 -118 -81 -137 -132 -12 -31 -16 -64 -13 -108 5
-79 38 -136 103 -175 l44 -27 1 -152 0 -153 80 0 80 0 0 155 0 154 31 17 c71
36 118 117 119 199 0 57 -33 137 -71 172 -60 54 -158 76 -237 50z"/>
<path d="M665 4771 c-181 -84 -180 -351 2 -428 43 -18 135 -17 181 3 43 17 97
67 118 107 l15 27 312 -2 312 -3 3 -137 3 -138 80 0 81 0 -4 196 -3 196 -28
24 -28 24 -370 0 c-326 0 -369 2 -369 15 0 27 -92 110 -136 123 -59 17 -123
15 -169 -7z"/>
<path d="M4499 4762 c-38 -19 -63 -42 -84 -74 l-30 -47 -473 0 -474 -1 -29
-29 -29 -29 0 -191 0 -191 80 0 80 0 0 140 0 140 424 0 424 0 12 -30 c16 -39
82 -96 127 -111 19 -6 64 -9 99 -7 50 3 72 10 106 34 83 58 118 141 99 234
-32 156 -193 235 -332 162z"/>
<path d="M1318 4025 c-59 -22 -105 -62 -133 -118 l-25 -51 0 -1295 c0 -1235 1
-1298 19 -1336 27 -61 102 -122 164 -135 37 -8 402 -10 1267 -8 1163 3 1216 4
1250 22 49 26 88 64 113 111 l22 40 0 1305 0 1305 -22 41 c-28 53 -91 107
-142 122 -61 19 -2463 15 -2513 -3z m1462 -373 l36 -93 89 -30 c50 -17 117
-45 150 -63 l60 -33 95 43 95 42 113 -111 c61 -62 112 -117 112 -123 0 -7 -18
-51 -39 -98 l-40 -86 41 -80 c22 -44 50 -112 62 -151 l22 -72 94 -36 95 -37 0
-164 0 -164 -94 -36 -94 -36 -26 -80 c-15 -43 -43 -111 -63 -150 l-36 -71 39
-87 c21 -49 39 -94 39 -100 0 -6 -51 -61 -112 -123 l-113 -111 -94 43 -93 43
-78 -40 c-43 -22 -112 -50 -152 -63 l-73 -23 -36 -94 -36 -93 -164 -3 -164 -2
-37 97 -37 98 -67 19 c-36 10 -104 38 -151 62 l-85 42 -85 -39 c-47 -21 -90
-39 -97 -39 -6 0 -61 51 -123 113 l-111 112 41 92 40 93 -45 97 c-25 54 -53
123 -62 153 l-15 55 -101 38 -100 38 2 161 3 161 89 34 c50 18 95 38 102 44 6
5 17 31 24 57 6 26 32 91 57 145 l46 97 -42 97 -42 97 113 113 114 114 97 -43
97 -44 97 48 c53 26 120 53 149 59 l53 12 38 99 38 98 164 -2 165 -3 36 -93z"/>
<path d="M2431 3205 c-179 -40 -357 -179 -438 -342 -57 -113 -77 -210 -71
-337 14 -273 185 -499 445 -589 440 -151 899 199 869 663 -7 105 -26 172 -78
273 -75 144 -210 258 -369 312 -103 34 -257 43 -358 20z m211 -185 c2 -6 0
-68 -5 -138 -4 -70 -6 -149 -5 -177 l3 -50 155 -5 c115 -4 155 -8 155 -18 0
-14 -424 -542 -436 -542 -19 0 -19 29 1 195 11 97 18 180 15 186 -4 5 -73 9
-156 9 -123 0 -151 3 -155 15 -7 17 392 535 412 535 7 0 14 -5 16 -10z"/>
<path d="M315 2770 c-56 -28 -103 -85 -122 -149 -51 -176 117 -334 298 -279
49 14 112 67 129 108 l12 30 184 0 184 0 0 80 0 80 -184 0 -184 0 -12 30 c-15
36 -71 87 -116 106 -48 20 -141 17 -189 -6z"/>
<path d="M4614 2776 c-44 -19 -99 -71 -114 -106 l-12 -30 -164 0 -164 0 0 -80
0 -80 164 0 164 0 12 -30 c7 -17 30 -46 51 -64 73 -62 171 -73 258 -30 100 50
148 159 118 265 -32 107 -115 169 -224 169 -32 -1 -72 -7 -89 -14z"/>
<path d="M1608 793 l-3 -128 -311 -3 -310 -2 -32 48 c-100 155 -338 134 -409
-35 -19 -46 -16 -140 6 -189 35 -78 127 -134 217 -134 75 0 179 68 199 130 6
19 18 19 380 22 374 3 374 3 397 26 22 22 23 31 26 207 l4 185 -81 0 -80 0 -3
-127z"/>
<path d="M2500 768 l-1 -153 -44 -27 c-65 -39 -98 -96 -103 -175 -6 -84 16
-141 73 -191 72 -64 162 -79 245 -41 60 27 88 54 116 114 53 111 10 245 -95
299 l-31 17 0 154 0 155 -80 0 -80 0 0 -152z"/>
<path d="M3490 738 c1 -128 4 -188 13 -199 28 -37 48 -39 416 -39 l360 0 15
-28 c23 -45 91 -100 138 -113 219 -59 387 200 241 371 -48 56 -103 82 -172 82
-91 0 -167 -43 -206 -116 l-20 -36 -312 0 -313 0 0 130 0 130 -80 0 -80 0 0
-182z"/>
</g>
</svg>
