<?xml version="1.0" standalone="no"?>
<!DOCTYPE svg PUBLIC "-//W3C//DTD SVG 20010904//EN"
 "http://www.w3.org/TR/2001/REC-SVG-20010904/DTD/svg10.dtd">
<svg version="1.0" xmlns="http://www.w3.org/2000/svg"
 width="512.000000pt" height="512.000000pt" viewBox="0 0 512.000000 512.000000"
 preserveAspectRatio="xMidYMid meet">

<g transform="translate(0.000000,512.000000) scale(0.100000,-0.100000)"
fill="#000000" stroke="none">
<path d="M1450 4653 c-50 -19 -81 -83 -60 -122 10 -20 20 -21 145 -21 123 0
135 2 145 19 17 33 11 59 -19 93 -28 32 -32 33 -113 35 -46 1 -90 0 -98 -4z"/>
<path d="M2458 4644 c-33 -17 -48 -43 -48 -81 0 -48 13 -53 150 -53 137 0 150
5 150 53 0 68 -45 97 -152 97 -45 -1 -84 -7 -100 -16z"/>
<path d="M3494 4651 c-28 -12 -64 -59 -64 -83 0 -11 5 -28 10 -39 10 -17 22
-19 145 -19 125 0 135 1 145 21 16 28 4 72 -26 100 -22 21 -37 24 -107 26 -45
2 -92 -1 -103 -6z"/>
<path d="M1255 4430 c-63 -25 -75 -41 -75 -105 0 -60 20 -85 85 -105 22 -6 47
-14 55 -17 8 -2 -12 -13 -45 -24 -75 -23 -95 -46 -95 -109 0 -63 20 -86 94
-109 l59 -18 -54 -18 c-79 -25 -99 -48 -99 -107 0 -27 4 -58 10 -68 5 -10 39
-28 77 -41 l68 -22 -64 -22 c-35 -11 -69 -29 -77 -40 -8 -10 -14 -42 -14 -70
0 -63 13 -77 95 -105 51 -17 84 -20 258 -20 212 0 279 10 331 51 23 18 26 28
26 78 0 70 -10 81 -95 109 l-60 19 58 17 c80 23 97 43 97 111 0 68 -17 88 -97
111 l-57 17 58 17 c83 26 96 41 96 110 0 69 -13 84 -96 109 l-57 18 66 22 c76
25 87 39 87 106 0 64 -12 80 -75 104 -51 19 -77 21 -283 21 -200 -1 -233 -3
-277 -20z"/>
<path d="M2286 4431 c-62 -22 -86 -51 -86 -105 0 -56 20 -81 83 -101 57 -19
82 -35 53 -35 -35 0 -113 -41 -125 -66 -14 -32 -14 -76 1 -108 10 -24 72 -55
133 -68 13 -3 0 -10 -39 -22 -78 -23 -106 -52 -106 -109 0 -62 25 -89 100
-112 l61 -19 -60 -18 c-73 -22 -101 -53 -101 -112 0 -60 21 -82 96 -106 57
-17 93 -20 268 -20 181 1 208 3 266 23 72 24 90 46 90 108 0 53 -30 85 -101
107 l-60 18 61 19 c75 23 100 50 100 112 0 57 -28 86 -106 109 -39 12 -52 19
-39 22 61 13 123 44 133 68 15 32 15 76 1 108 -12 25 -90 66 -125 66 -28 0 -4
15 45 29 63 18 91 50 91 105 0 57 -27 89 -93 110 -72 24 -472 22 -541 -3z"/>
<path d="M3305 4430 c-27 -11 -56 -28 -62 -37 -15 -20 -17 -107 -3 -133 5 -10
39 -28 77 -41 l66 -22 -57 -18 c-83 -25 -96 -40 -96 -109 0 -69 13 -84 96
-109 l57 -18 -66 -22 c-38 -13 -72 -31 -77 -41 -6 -10 -10 -41 -10 -69 0 -64
19 -84 97 -107 l58 -17 -60 -19 c-85 -28 -95 -40 -95 -108 0 -68 11 -81 95
-110 51 -17 84 -20 260 -20 176 0 209 3 260 20 82 28 95 42 95 105 0 67 -18
88 -95 113 l-60 19 58 17 c79 23 97 43 97 109 0 65 -19 86 -99 112 l-54 18 59
18 c74 23 94 46 94 109 0 63 -20 86 -95 109 -33 11 -53 22 -45 24 8 3 33 11
55 17 64 20 85 45 85 102 0 67 -11 83 -75 107 -51 19 -77 21 -283 21 -200 -1
-233 -3 -277 -20z"/>
<path d="M1394 3355 c-19 -30 -11 -63 19 -70 12 -3 76 -4 142 -3 l120 3 9 27
c8 22 6 32 -9 48 -16 18 -30 20 -141 20 -120 0 -124 -1 -140 -25z"/>
<path d="M2428 3369 c-21 -12 -24 -59 -6 -77 8 -8 53 -12 138 -12 85 0 130 4
138 12 19 19 15 66 -7 78 -25 13 -240 13 -263 -1z"/>
<path d="M3445 3360 c-15 -16 -17 -26 -9 -48 l9 -27 120 -3 c66 -1 130 0 142
3 30 7 38 40 19 70 -16 24 -20 25 -140 25 -111 0 -125 -2 -141 -20z"/>
<path d="M960 3223 c-30 -11 -40 -37 -40 -103 0 -112 -194 -100 1642 -100
1542 0 1606 1 1621 18 22 24 24 139 3 168 -14 19 -43 19 -1613 21 -879 1
-1605 -1 -1613 -4z"/>
<path d="M1098 2959 c-17 -9 -18 -72 -18 -1087 0 -825 3 -1081 12 -1090 17
-17 2919 -17 2936 0 9 9 12 265 12 1090 0 1055 0 1078 -19 1088 -27 14 -2899
13 -2923 -1z m2626 -265 c14 -14 16 -100 16 -795 0 -519 -3 -787 -10 -800 -10
-19 -34 -19 -1170 -19 -1136 0 -1160 0 -1170 19 -7 13 -10 281 -10 800 0 695
2 781 16 795 14 14 133 16 1164 16 1031 0 1150 -2 1164 -16z"/>
<path d="M2554 2400 c-182 -332 -335 -632 -330 -645 4 -12 31 -15 154 -15 124
0 152 -3 163 -16 11 -13 11 -37 0 -137 -21 -210 -24 -273 -13 -262 21 20 372
690 370 705 -3 12 -30 16 -157 20 -129 4 -156 8 -164 22 -8 12 -6 66 7 190 10
95 17 182 15 193 -3 15 -15 0 -45 -55z"/>
<path d="M634 2856 c-19 -14 -19 -35 -19 -961 0 -926 0 -947 19 -961 24 -17
335 -20 367 -4 19 10 19 32 19 960 0 849 -2 950 -16 964 -22 22 -340 24 -370
2z"/>
<path d="M4116 2854 c-14 -14 -16 -115 -16 -964 0 -928 0 -950 19 -960 32 -16
343 -13 367 4 19 14 19 35 19 961 0 926 0 947 -19 961 -30 22 -348 20 -370 -2z"/>
<path d="M1350 700 c-17 -17 -20 -33 -20 -113 0 -78 3 -97 18 -110 16 -15 51
-17 288 -17 218 0 274 3 290 14 17 13 19 27 19 116 0 89 -2 103 -19 116 -16
11 -72 14 -288 14 -255 0 -269 -1 -288 -20z"/>
<path d="M3194 706 c-17 -13 -19 -27 -19 -116 0 -89 2 -103 19 -116 16 -11 73
-14 291 -14 326 0 305 -9 305 128 0 140 18 132 -308 132 -216 0 -272 -3 -288
-14z"/>
</g>
</svg>
